<?xml version="1.0" standalone="no"?>
<!DOCTYPE svg PUBLIC "-//W3C//DTD SVG 1.1//EN" "http://www.w3.org/Graphics/SVG/1.1/DTD/svg11.dtd" >
<svg xmlns="http://www.w3.org/2000/svg">
<metadata>
This is a custom SVG webfont generated by Font Squirrel.
Copyright   : Copyright c 1987 1991 1993 Adobe Systems Incorporated  All Rights ReservedFutura is a registered trademark of Fundicion Tipografica Neufville S A
Foundry URL : wwwlinotypelibrarycom
</metadata>
<defs>
<font id="webfontqnYJdik7" horiz-adv-x="1269" >
<font-face units-per-em="2048" ascent="1638" descent="-410" />
<missing-glyph horiz-adv-x="634" />
<glyph unicode=" "  horiz-adv-x="634" />
<glyph unicode="&#x09;" horiz-adv-x="634" />
<glyph unicode="&#xa0;" horiz-adv-x="634" />
<glyph unicode="!" horiz-adv-x="655" d="M279 1544h98v-1251h-98v1251zM328 147q35 0 59.5 -24.5t24.5 -59.5t-25 -59t-59 -24q-35 0 -59.5 24.5t-24.5 58.5q0 35 24.5 59.5t59.5 24.5z" />
<glyph unicode="&#x22;" horiz-adv-x="569" d="M451 1544l-23 -491h-55l-21 491h99zM217 1544l-22 -491h-56l-20 491h98z" />
<glyph unicode="#" d="M530 897l-49 -332h279l49 332h-279zM1098 467h-258l-76 -467h-94l73 467h-276l-68 -467h-98l68 467h-248v98h262l47 332h-252v98h266l66 435h102l-65 -435h278l66 435h102l-67 -435h225v-98h-242l-53 -332h242v-98z" />
<glyph unicode="$" d="M618 786l-126 65q-63 34 -115.5 78t-85.5 102.5t-33 142.5q0 82 25.5 151.5t74 120.5t115 82t145.5 37v215h93v-219q98 -12 182 -68.5t131 -144.5l-76 -62q-39 66 -99.5 118t-137.5 62v-614l141 -72q70 -35 125 -81t89 -110.5t34 -158.5q0 -84 -32 -157.5t-85 -133 t-124 -100.5t-148 -55v-232h-93v228q-162 4 -277.5 92t-170.5 241l84 39q23 -59 58.5 -110.5t81.5 -89t102.5 -58t121.5 -16.5v708zM618 1466q-55 0 -103 -24.5t-84 -65.5t-55.5 -92t-19.5 -106q0 -59 25 -102.5t62.5 -75t83.5 -57l91 -48.5v571zM711 82q61 14 114.5 48 t92 81t61 104.5t22.5 122.5q0 61 -27.5 108.5t-69.5 82.5t-93 62.5t-100 49.5v-659z" />
<glyph unicode="%" horiz-adv-x="1359" d="M991 506q-45 0 -86 -17.5t-71.5 -46t-49 -69.5t-18.5 -86t18.5 -84t49 -69t71.5 -46t86 -16t86 16t72 46t49.5 69t18.5 84t-18.5 86t-49.5 69.5t-72 46t-86 17.5zM991 592q66 0 122 -22.5t98 -63.5t67 -96.5t25 -122.5q0 -66 -25 -121t-67 -95t-99 -62.5t-121 -22.5 q-66 0 -122 22.5t-98 62.5t-66.5 95t-24.5 121q0 68 24.5 123t66.5 96t98 63.5t122 22.5zM1169 1544l-917 -1579l-64 37l914 1577zM369 1473q-45 0 -86 -17.5t-72 -46.5t-49.5 -70t-18.5 -86t18.5 -84t49.5 -68.5t72 -46t86 -16.5t86 16.5t71.5 46t49 68.5t18.5 84t-18.5 86 t-49 70t-71.5 46.5t-86 17.5zM369 1559q66 0 122 -23t98 -63.5t66.5 -96t24.5 -123.5q0 -66 -24.5 -121t-66.5 -95t-99.5 -62.5t-120.5 -22.5q-66 0 -122.5 22.5t-98.5 62.5t-66.5 95.5t-24.5 120.5q0 68 24.5 123.5t66.5 96t98.5 63.5t122.5 23z" />
<glyph unicode="&#x26;" horiz-adv-x="1314" d="M473 795l-113.5 -76t-106.5 -90t-79 -108.5t-31 -133.5q0 -66 22.5 -125t62.5 -103t96.5 -71t124.5 -27t136 26t133.5 66t127.5 88l115 93l-390 526zM1018 256q-66 -55 -134.5 -106.5t-140 -91.5t-145.5 -64.5t-149 -24.5q-86 0 -160 33t-128.5 88t-85 129t-30.5 158 q0 100 44 182t111.5 149.5t150.5 124t163 105.5l-55 76q-29 39 -52.5 81t-39 87t-15.5 94q0 61 24.5 115.5t65.5 94.5t95.5 63.5t115.5 23.5q59 0 110.5 -22.5t89.5 -61.5t59.5 -91t21.5 -112q0 -66 -24.5 -119t-64.5 -99t-92 -85l-108 -78l381 -520l197 215l75 -41 l-215 -246l236 -313h-107zM647 1481q-43 0 -79 -18.5t-61.5 -48.5t-40.5 -68.5t-15 -79.5t13 -78t33.5 -72t45 -67.5t45.5 -67.5q41 33 85 62.5t79.5 64.5t59.5 78t24 102q0 39 -14.5 74t-40 61.5t-60.5 42t-74 15.5z" />
<glyph unicode="'" horiz-adv-x="454" d="M276 1544l-22 -491h-55l-21 491h98z" />
<glyph unicode="(" horiz-adv-x="491" d="M356 1544q-63 -223 -96 -459.5t-33 -480.5q0 -225 33 -455.5t96 -459.5l-75 -51q-39 100 -67 223t-45 253t-25.5 257t-8.5 233q0 109 7.5 239t24.5 264t45 261t69 229z" />
<glyph unicode=")" horiz-adv-x="491" d="M211 1597q41 -102 68.5 -229t45 -261t24.5 -264t7 -239q0 -106 -8 -233t-25.5 -257t-45 -253t-66.5 -223l-76 51q63 229 96 459.5t33 455.5q0 244 -32.5 480.5t-96.5 459.5z" />
<glyph unicode="*" horiz-adv-x="1267" d="M584 1544h100l-8 -307l291 102l30 -96l-295 -88l189 -244l-82 -59l-174 254l-176 -254l-80 57l186 246l-295 88l31 96l291 -102z" />
<glyph unicode="+" d="M586 1049h98v-476h475v-98h-475v-475h-98v475h-475v98h475v476z" />
<glyph unicode="," horiz-adv-x="634" d="M406 123l-170 -463l-62 23l139 469z" />
<glyph unicode="-" horiz-adv-x="389" d="M389 700v-92h-389v92h389z" />
<glyph unicode="." horiz-adv-x="634" d="M317 147q35 0 59.5 -24.5t24.5 -59.5t-24.5 -59t-59.5 -24t-59.5 24.5t-24.5 58.5q0 35 24.5 59.5t59.5 24.5z" />
<glyph unicode="/" horiz-adv-x="1310" d="M1239 1653l-1092 -1944l-75 39l1095 1942z" />
<glyph unicode="0" d="M635 72q123 0 211 71.5t144.5 179t82 231.5t25.5 228q0 92 -25.5 211t-82 225.5t-144.5 180.5t-211 74t-211 -74t-144.5 -180.5t-82 -225.5t-25.5 -211q0 -104 25.5 -228t82 -231.5t144.5 -179t211 -71.5zM635 1565q96 0 175 -36t141.5 -95.5t108.5 -138t75.5 -166 t45 -177.5t15.5 -170t-14.5 -170t-44 -180t-74.5 -171t-107.5 -144.5t-142.5 -100t-178 -36.5t-178 36.5t-142.5 100t-107.5 144.5t-75 171t-44 180t-14 170t15 170t45 177.5t76 166t108.5 138t141.5 95.5t175 36z" />
<glyph unicode="1" d="M387 1452l47 92h295v-1544h-98v1452h-244z" />
<glyph unicode="2" d="M1094 92v-92h-953l576 633l93 105q50 56 93 118t70.5 128.5t27.5 133.5q0 76 -28.5 140.5t-78.5 111.5t-116.5 75t-140.5 28q-80 0 -147.5 -28t-116.5 -76t-76 -114.5t-25 -146.5h-98q4 84 21.5 155.5t74.5 137.5q68 76 167.5 120t199.5 44q96 0 180 -35t147.5 -95.5 t99.5 -143.5t36 -179q0 -78 -26.5 -148.5t-68.5 -135t-95 -122.5l-101 -114l-449 -500h734z" />
<glyph unicode="3" d="M618 850q68 2 128.5 25.5t104.5 65.5t69.5 100.5t25.5 129.5q0 63 -24.5 117.5t-65.5 95.5t-97.5 65t-117.5 24q-135 0 -213 -80t-86 -213h-98q12 176 115.5 280.5t283.5 104.5q82 0 155.5 -31t128 -84t86 -126t31.5 -157q0 -119 -61 -215t-170 -143q57 -23 104.5 -61.5 t81 -88t51 -106.5t17.5 -119q0 -96 -35 -179t-95 -144.5t-143 -96t-180 -34.5q-86 0 -164.5 28.5t-137 81.5t-92.5 126t-34 163h99q6 -68 31.5 -124t67.5 -97t99.5 -63.5t128.5 -22.5q74 0 138.5 28.5t112.5 77.5t77 113.5t29 136.5q0 76 -28 136.5t-76 103.5t-111.5 66.5 t-135.5 23.5v92z" />
<glyph unicode="4" d="M858 1298h-12l-641 -901v-12h653v913zM1174 385v-92h-218v-293h-98v293h-833v12l919 1292h12v-1212h218z" />
<glyph unicode="5" d="M571 1452l-129 -418q29 10 58.5 13.5t58.5 3.5q111 0 207 -41t167 -113t110.5 -167t39.5 -206q0 -119 -43 -218t-118.5 -172t-177 -113.5t-218.5 -40.5q-141 0 -262 67.5t-194 188.5l90 36q59 -92 158.5 -146t209.5 -54q96 0 180.5 34.5t145.5 95t96 143.5t35 181 q0 92 -36 171t-97 137.5t-143 91t-174 32.5q-68 0 -123.5 -17t-112.5 -52l201 655h587v-92h-516z" />
<glyph unicode="6" d="M635 72q92 0 174 34.5t143.5 96t97 143.5t35.5 174t-35.5 174t-97 142.5t-143.5 96.5t-174 36t-174 -36t-143.5 -96.5t-97.5 -142.5t-36 -174t36 -174t97.5 -143.5t143.5 -96t174 -34.5zM776 1505l-340 -481l4 -4q98 41 205 41q111 0 209 -43t172 -118t116 -173t42 -209 q0 -104 -42 -199.5t-112 -171.5q-78 -86 -180 -126.5t-217 -40.5q-113 0 -212 41.5t-174 113.5t-118 170t-43 213q0 98 27.5 179t85.5 161l497 707z" />
<glyph unicode="7" d="M143 1452v92h1121l-1106 -1560l-76 59l999 1409h-938z" />
<glyph unicode="8" d="M635 1473q-66 0 -123 -25t-100 -68t-68 -100t-25 -121q0 -66 25 -122t68 -98t100 -66.5t123 -24.5q63 0 120.5 24.5t100.5 66.5t68.5 98.5t25.5 121.5q0 63 -25.5 120.5t-68.5 100.5t-100.5 68t-120.5 25zM635 -20q-90 0 -172 31.5t-143.5 88t-97.5 134t-36 169.5 q0 281 252 402q-100 49 -158.5 145.5t-58.5 206.5q0 88 32 163t87 129t131 85t164 31t163.5 -31t131 -85t87.5 -129t32 -163q0 -111 -58.5 -207t-159.5 -145q252 -121 252 -402q0 -92 -35.5 -169.5t-97 -134t-143.5 -88t-172 -31.5zM635 756q-72 0 -135.5 -27t-111.5 -73 t-75.5 -108.5t-27.5 -133.5q0 -72 27.5 -134.5t75.5 -108.5t111.5 -72.5t135.5 -26.5q70 0 134.5 26.5t111.5 72.5t75.5 108.5t28.5 134.5t-28.5 134t-75.5 108t-111.5 73t-134.5 27z" />
<glyph unicode="9" d="M637 1473q-92 0 -174 -35t-144.5 -95.5t-98.5 -142.5t-36 -174t36 -173t98.5 -142.5t144.5 -96t174 -34.5t174 34.5t142.5 96t96 142.5t35.5 173t-35.5 174t-96 142.5t-142.5 95.5t-174 35zM494 43l342 481l-5 4q-49 -20 -99 -30.5t-107 -10.5q-111 0 -209.5 43t-171 117 t-115.5 172.5t-43 208.5q0 113 44 211t120 170t176 114t211 42q117 0 216 -42t173 -116t116 -173t42 -216q0 -94 -30 -174t-83 -156l-498 -704z" />
<glyph unicode=":" horiz-adv-x="634" d="M317 967q35 0 59.5 -24.5t24.5 -59.5t-24.5 -59.5t-59.5 -24.5t-59.5 24.5t-24.5 59.5t24.5 59.5t59.5 24.5zM317 147q35 0 59.5 -24.5t24.5 -59.5t-24.5 -59t-59.5 -24t-59.5 24.5t-24.5 58.5q0 35 24.5 59.5t59.5 24.5z" />
<glyph unicode=";" horiz-adv-x="634" d="M330 967q35 0 59.5 -24.5t24.5 -59.5t-24.5 -59.5t-59.5 -24.5t-59.5 24.5t-24.5 59.5t24.5 59.5t59.5 24.5zM406 123l-170 -463l-62 23l139 469z" />
<glyph unicode="&#x3c;" d="M1159 84v-94l-1048 481v109l1048 456v-94l-942 -418z" />
<glyph unicode="=" d="M1159 301h-1048v98h1048v-98zM1159 649h-1048v99h1048v-99z" />
<glyph unicode="&#x3e;" d="M1053 524l-942 418v94l1048 -456v-109l-1048 -481v94z" />
<glyph unicode="?" horiz-adv-x="1005" d="M498 147q35 0 59.5 -24.5t24.5 -59.5t-25 -59t-59 -24q-35 0 -59.5 24.5t-24.5 58.5q0 35 24.5 59.5t59.5 24.5zM823 621q2 -70 -19.5 -130.5t-63.5 -104.5t-102 -69.5t-134 -25.5q-68 0 -126.5 22.5t-102.5 63.5t-69.5 97t-25.5 122q0 70 22.5 122t61.5 89t92.5 61.5 t117 41t118.5 35t95 48t62.5 76.5t22.5 123q0 57 -19.5 108.5t-55 89t-86 60.5t-111.5 23q-57 0 -106.5 -19.5t-85.5 -55.5t-55.5 -83t-19.5 -103q0 -29 2.5 -55.5t8.5 -52.5h-94q-6 33 -10.5 64.5t-4.5 66.5q0 74 30 134.5t81 104.5t117.5 67.5t138.5 23.5q82 0 150.5 -28 t116.5 -77t74.5 -116.5t26.5 -147.5q0 -86 -24.5 -147.5t-68.5 -103.5t-107.5 -69.5t-139.5 -46.5q-49 -12 -94 -26.5t-79.5 -39t-56 -62t-21.5 -99.5q0 -96 64.5 -157.5t164.5 -61.5q51 0 92 19.5t68.5 53t42 75.5t14.5 90h98z" />
<glyph unicode="@" horiz-adv-x="1638" d="M1159 1204h90l-211 -663q-8 -27 -14 -53.5t-2 -47t23.5 -33t62.5 -12.5q63 0 127.5 49.5t117 125t85 166.5t32.5 175q0 127 -53 231.5t-139 179.5t-196.5 116t-227.5 41q-141 0 -266 -58.5t-218.5 -157t-147.5 -228.5t-54 -271t56.5 -268t150.5 -222.5t219 -151.5 t264 -56q86 0 168 17t154.5 52t133 87t103.5 122h115q-43 -82 -109.5 -148.5t-152.5 -114.5t-190.5 -74.5t-221.5 -26.5q-164 0 -306 62t-246.5 171t-164 254t-59.5 311q0 164 61.5 307.5t167 250t244.5 168t295 61.5q147 0 276 -49.5t224.5 -137.5t150.5 -209.5t55 -265.5 q0 -123 -44 -231.5t-112.5 -189.5t-153.5 -127t-167 -46q-53 0 -95 25.5t-58 75.5q-63 -53 -132 -77t-135 -24t-116.5 23.5t-85.5 63.5t-52.5 95.5t-17.5 118.5q0 104 35 217t99.5 206t155.5 152.5t206 59.5q72 0 137 -35.5t108 -101.5zM690 395q49 2 96.5 24.5t85 57.5 t66.5 78t41 84l96 301q8 27 -2 64.5t-37.5 72.5t-70.5 58.5t-99 23.5q-80 0 -151.5 -54t-125.5 -135t-85 -175.5t-31 -171.5q0 -45 14.5 -86t42 -74t67.5 -51.5t93 -16.5z" />
<glyph unicode="A" horiz-adv-x="1312" d="M657 1346l-303 -746h604zM317 508l-206 -508h-101l647 1595l646 -1595h-101l-207 508h-678z" />
<glyph unicode="B" horiz-adv-x="1157" d="M264 844h170q78 0 144.5 5t132 52t90 107.5t24.5 140.5q0 76 -30.5 144.5t-96.5 109.5q-59 37 -127.5 43t-136.5 6h-170v-608zM166 0v1544h309q88 0 169 -14t151 -76q72 -61 100.5 -144t28.5 -175q0 -106 -43 -184.5t-136 -131.5q72 -14 130.5 -49t100.5 -86t65.5 -115.5 t23.5 -138.5q0 -94 -36 -176t-107 -143q-82 -70 -169 -90.5t-192 -20.5h-395zM264 92h236q82 0 162.5 6t152.5 53.5t112 118t40 156.5t-41 162t-119 114q-72 35 -160 42.5t-166 7.5h-217v-660z" />
<glyph unicode="C" horiz-adv-x="1513" d="M1393 1229q-45 55 -104.5 99t-128 77t-141.5 50.5t-145 17.5q-145 0 -272 -57.5t-223 -156t-151.5 -227.5t-55.5 -270q0 -135 54.5 -258t152.5 -219q98 -92 228 -152.5t267 -60.5q68 0 140.5 17t142.5 48t131.5 74t104.5 96v-135q-111 -92 -241 -142t-273 -50 q-162 0 -307.5 62t-256 169.5t-176 252t-65.5 306.5q0 164 64.5 309.5t175 253t257 170t310.5 62.5q141 0 274 -52.5t238 -148.5v-135z" />
<glyph unicode="D" horiz-adv-x="1335" d="M442 92q152 0 280 39t239 148q98 98 151 225t53 266q0 147 -56 280.5t-167 233.5t-232.5 134t-267.5 34h-178v-1360h178zM166 1544h278q84 0 161 -8t147.5 -29.5t136 -59.5t129.5 -97q123 -115 184.5 -264.5t61.5 -315.5q0 -160 -60.5 -306.5t-177.5 -258.5 q-127 -123 -268.5 -164t-313.5 -41h-278v1544z" />
<glyph unicode="E" horiz-adv-x="1038" d="M264 1452v-561h623v-92h-623v-707h639v-92h-737v1544h737v-92h-639z" />
<glyph unicode="F" horiz-adv-x="909" d="M264 1452v-561h510v-92h-510v-799h-98v1544h622v-92h-524z" />
<glyph unicode="G" horiz-adv-x="1687" d="M1614 743q1 -18 0 -36q0 -54 -4 -105q-6 -68 -23.5 -132t-50.5 -124.5t-84 -116.5q-111 -121 -266.5 -185t-319.5 -64q-160 0 -304 62t-252.5 169.5t-172 251t-63.5 303.5q0 166 63.5 311.5t173 254t256 171t312.5 62.5q211 0 378.5 -97.5t290.5 -263.5l-80 -63 q-104 154 -255.5 243t-340.5 89q-141 0 -268 -57.5t-223 -154t-152.5 -223.5t-56.5 -266q0 -143 55.5 -270t150.5 -222.5t222 -151.5t272 -56q125 0 242 46t213 124q100 86 142 184t47 225h-553v92h651z" />
<glyph unicode="H" horiz-adv-x="1466" d="M1202 889v655h98v-1544h-98v797h-938v-797h-98v1544h98v-655h938z" />
<glyph unicode="I" horiz-adv-x="430" d="M264 0h-98v1544h98v-1544z" />
<glyph unicode="J" horiz-adv-x="446" d="M281 1544v-1515q0 -72 -11.5 -136.5t-41 -112.5t-83 -76t-137.5 -28q-86 0 -153.5 46.5t-102.5 121.5l74 56q27 -55 78 -93t112 -38q57 0 90 24.5t50.5 62.5t21.5 84t4 89v1515h99z" />
<glyph unicode="K" horiz-adv-x="1165" d="M997 1544h131l-755 -743l803 -801h-129l-742 737l-41 -41v-696h-98v1544h98v-721z" />
<glyph unicode="L" horiz-adv-x="669" d="M264 92h393v-92h-491v1544h98v-1452z" />
<glyph unicode="M" horiz-adv-x="1837" d="M1460 1278h-4l-538 -1329l-537 1329h-4l-264 -1278h-95l332 1595l568 -1405l569 1405l332 -1595h-95z" />
<glyph unicode="N" horiz-adv-x="1726" d="M1561 -51l-1297 1378v-1327h-98v1565l1296 -1368v1347h99v-1595z" />
<glyph unicode="O" horiz-adv-x="1748" d="M874 1473q-145 0 -272 -56.5t-223 -152t-151.5 -222.5t-55.5 -270t55.5 -270t151.5 -222.5t223 -151.5t272 -56q143 0 271.5 56t223.5 151.5t151.5 223.5t56.5 269q0 143 -56.5 270t-151.5 222.5t-223.5 152t-271.5 56.5zM874 1565q162 0 308.5 -62.5t255 -171t173 -253 t64.5 -306.5q0 -164 -64.5 -307t-173 -252t-255 -171t-308.5 -62q-164 0 -309 62t-253.5 171t-173 252t-64.5 307q0 162 63.5 306.5t173 253t254.5 171t309 62.5z" />
<glyph unicode="P" horiz-adv-x="966" d="M442 825q76 0 143.5 15.5t127.5 68.5q100 92 100 232q0 72 -28.5 139.5t-88.5 110.5q-59 45 -128.5 53t-141.5 8h-162v-627h178zM264 0h-98v1544h272q92 0 177 -14t157 -76q72 -59 105.5 -142t33.5 -175q0 -84 -31.5 -168t-97.5 -138q-72 -61 -162 -79.5t-182 -18.5h-174 v-733z" />
<glyph unicode="Q" horiz-adv-x="1748" d="M1380 164q-104 -86 -237 -135t-269 -49q-166 0 -311 61t-253.5 168.5t-172 252t-63.5 310.5q0 164 63.5 308.5t173 252t256 170t310.5 62.5q162 0 307 -62.5t253.5 -169t173 -250t64.5 -305.5q0 -164 -58 -300t-167 -259l203 -219h-133zM1378 293q92 100 145.5 214 t53.5 253q0 145 -54.5 274t-148.5 226.5t-222 155t-275 57.5q-143 0 -271.5 -56.5t-224.5 -152t-152.5 -222.5t-56.5 -270q0 -145 56.5 -272t152.5 -222.5t225 -150.5t275 -55q117 0 227.5 45t202.5 116l-385 400h139z" />
<glyph unicode="R" horiz-adv-x="999" d="M389 823q72 0 141.5 10.5t128.5 61.5q55 45 82 109.5t27 134.5q0 86 -40 163.5t-124 114.5q-61 29 -135 32t-141 3h-64v-629h125zM930 0h-113l-504 731h-49v-731h-98v1544h192q94 0 184.5 -10t168.5 -68q84 -59 119.5 -146t35.5 -185q0 -100 -32.5 -177t-92 -127.5 t-140.5 -75.5q-75 -24 -163 -24h-14z" />
<glyph unicode="S" horiz-adv-x="1114" d="M881 1290q-53 84 -128 133.5t-186 49.5q-61 0 -114.5 -24t-92 -63.5t-61.5 -93t-23 -114.5t26 -105.5t67 -78t90 -58.5l96 -47l295 -154q88 -55 132 -129t44 -178q0 -96 -40 -178t-107.5 -142.5t-154.5 -94t-181 -33.5q-162 0 -282 91t-173 240l86 39 q49 -123 140.5 -200.5t232.5 -77.5q76 0 145.5 27.5t121.5 76.5t83 115.5t31 144.5q0 66 -30 114t-76 84t-101 63l-105 53l-278 147q-78 47 -119 115.5t-41 161.5q0 86 30 157.5t82 123.5t124.5 81t158.5 29q117 0 219.5 -58.5t157.5 -158.5z" />
<glyph unicode="T" horiz-adv-x="921" d="M510 0h-98v1452h-400v92h897v-92h-399v-1452z" />
<glyph unicode="U" horiz-adv-x="1351" d="M1102 1544h98v-962q0 -59 -2 -114.5t-11 -108t-30.5 -101.5t-60.5 -98q-78 -90 -190.5 -135t-229.5 -45t-229.5 45t-190.5 135q-39 49 -60.5 98t-30.5 101.5t-11 107.5t-2 115v962h98v-934q0 -53 1 -105t9 -102.5t23.5 -96.5t46.5 -85q29 -37 69.5 -64.5t86.5 -47 t95.5 -28.5t94.5 -9t94 9t95 28.5t87 47t70 64.5q31 39 46 85t23.5 96.5t9.5 102.5t1 105v934z" />
<glyph unicode="V" horiz-adv-x="1136" d="M567 225h4l457 1319h98l-561 -1595l-555 1595h99z" />
<glyph unicode="W" horiz-adv-x="2263" d="M557 217l578 1405l577 -1405l428 1327h98l-520 -1595l-590 1427l-587 -1427l-516 1595h98z" />
<glyph unicode="X" horiz-adv-x="1011" d="M41 1544h109l354 -663l354 663h109l-404 -756l424 -788h-106l-377 698l-373 -698h-106l421 788z" />
<glyph unicode="Y" horiz-adv-x="1144" d="M8 1544h109l454 -782l455 782h109l-514 -885v-659h-99v659z" />
<glyph unicode="Z" horiz-adv-x="1163" d="M1112 92v-92h-1087l942 1452h-852v92h1024l-942 -1452h915z" />
<glyph unicode="[" horiz-adv-x="614" d="M231 -311h250v-105h-348v1960h348v-104h-250v-1751z" />
<glyph unicode="\" horiz-adv-x="1310" d="M143 1690l1096 -1651l-76 -39l-1091 1653z" />
<glyph unicode="]" horiz-adv-x="614" d="M383 1440h-250v104h348v-1960h-348v105h250v1751z" />
<glyph unicode="^" d="M111 616l471 928h106l471 -928h-94l-430 836l-428 -836h-96z" />
<glyph unicode="_" horiz-adv-x="1024" d="M0 -256v102h1024v-102h-1024z" />
<glyph unicode="`" horiz-adv-x="641" d="M279 1462l206 -301l-77 -35l-254 297z" />
<glyph unicode="a" horiz-adv-x="1146" d="M989 0h-92v170h-4q-27 -45 -67 -81t-88 -60.5t-101 -36.5t-105 -12q-109 0 -194.5 38.5t-146 106.5t-93 159t-32.5 195t32.5 193.5t92 155t145.5 102.5t192 37q111 0 208.5 -47.5t156.5 -137.5h4v164h92v-946zM524 881q-82 0 -149.5 -34t-115.5 -90.5t-74.5 -129 t-26.5 -148.5q0 -82 25.5 -156.5t74.5 -132t117.5 -91t154.5 -33.5q90 0 160 33.5t117 92t71.5 135t24.5 162.5q0 82 -26.5 154t-76.5 124t-120 83t-156 31z" />
<glyph unicode="b" horiz-adv-x="1146" d="M158 1690h92v-908h4q59 90 156.5 137.5t207.5 47.5q106 0 191.5 -37t146 -102.5t93 -154.5t32.5 -194q0 -104 -32.5 -195t-93 -159t-147.5 -106.5t-194 -38.5q-53 0 -105 12t-100.5 36.5t-88 60.5t-66.5 81h-4v-170h-92v1690zM616 66q86 0 156 33.5t118 91t73.5 132 t25.5 156.5q0 78 -26.5 150.5t-75.5 128t-117 89.5t-149 34q-90 0 -160 -32t-118 -86t-73.5 -128t-25.5 -158t25.5 -157.5t73.5 -131t116.5 -90t156.5 -32.5z" />
<glyph unicode="c" horiz-adv-x="976" d="M883 727q-68 74 -150 114t-184 40q-84 0 -155.5 -33t-124 -89.5t-82 -130t-29.5 -153.5t29.5 -154.5t82 -131t123 -90t154.5 -33.5q102 0 192 46t156 124v-125q-72 -63 -160 -97t-184 -34q-104 0 -193.5 38.5t-154 105t-101 157t-36.5 194.5q0 102 36.5 192.5t102 157 t155 104.5t193.5 38q92 0 175 -29t155 -88v-123z" />
<glyph unicode="d" horiz-adv-x="1146" d="M897 170h-4q-27 -45 -67 -81t-88 -60.5t-101 -36.5t-105 -12q-109 0 -194.5 38.5t-146 106.5t-93 159t-32.5 195t32.5 193.5t92 155t145.5 102.5t192 37q111 0 208.5 -47.5t156.5 -137.5h4v908h92v-1690h-92v170zM530 66q90 0 160 33.5t117 92t71.5 135t24.5 162.5 q0 82 -26.5 154t-76.5 124t-120 83t-156 31q-82 0 -149.5 -34t-115.5 -90.5t-74.5 -129t-26.5 -148.5q0 -82 25.5 -156.5t74.5 -132t117.5 -91t154.5 -33.5z" />
<glyph unicode="e" horiz-adv-x="1044" d="M887 551q-8 66 -38 125t-78 105t-109.5 73t-135.5 27q-72 0 -136 -27t-113.5 -72t-81 -104.5t-37.5 -126.5h729zM158 465v-12q0 -83 25 -152q28 -74 79 -126t122 -80.5t153 -28.5q111 0 196.5 59t136.5 156l78 -45q-66 -123 -174 -189.5t-250 -66.5q-104 0 -189 39.5 t-145.5 107.5t-92 158t-31.5 190q0 98 32.5 187.5t93 157t144.5 107.5t188 40q106 0 191.5 -40t144 -108.5t89 -160t30.5 -193.5h-821z" />
<glyph unicode="f" horiz-adv-x="491" d="M250 0h-92v860h-105v86h105v424q0 53 5 118.5t32 113.5q33 57 89 85.5t122 28.5q45 0 81 -14v-84l-36 8q-18 4 -39 4q-59 0 -92 -26.5t-48.5 -67.5t-18.5 -90t-3 -94v-406h237v-86h-237v-860z" />
<glyph unicode="g" horiz-adv-x="1161" d="M1004 45q0 -111 -13.5 -209t-81.5 -192q-66 -92 -165 -137.5t-212 -45.5q-92 0 -175 27t-146.5 79t-101 127t-43.5 173h92q4 -74 34.5 -133.5t81 -100.5t115 -63.5t135.5 -22.5q90 0 170 33t133 109q55 82 69.5 172t14.5 186v117h-4q-63 -86 -161.5 -135t-206.5 -49 q-102 0 -187.5 39.5t-146 108.5t-93 159t-32.5 188q0 102 35 191.5t97 156t148 105.5t191 39q117 0 204 -47.5t152 -137.5h4v164h93v-901zM539 881q-82 0 -149.5 -34t-116 -90.5t-75 -129t-26.5 -148.5q0 -82 25.5 -156.5t75 -132t118 -91t154.5 -33.5q90 0 159.5 33.5 t116.5 92t72 135t25 162.5q0 82 -27 154t-77 124t-119.5 83t-155.5 31z" />
<glyph unicode="h" horiz-adv-x="1003" d="M250 1690v-891h4q41 78 114.5 123t166.5 45q92 0 151 -28t95 -79t50.5 -123.5t14.5 -165.5v-571h-92v571q0 63 -6.5 120t-30 98.5t-68.5 66.5t-123 25q-90 0 -144 -38t-83 -97.5t-39 -133t-10 -145.5v-467h-92v1690h92z" />
<glyph unicode="i" horiz-adv-x="479" d="M240 1346q35 0 59.5 -25t24.5 -59q0 -35 -25 -59.5t-59 -24.5q-35 0 -59.5 24.5t-24.5 59.5t24.5 59.5t59.5 24.5zM285 0h-92v946h92v-946z" />
<glyph unicode="j" horiz-adv-x="479" d="M240 1346q35 0 59.5 -25t24.5 -59q0 -35 -25 -59.5t-59 -24.5q-35 0 -59.5 24.5t-24.5 59.5t24.5 59.5t59.5 24.5zM285 -553h-92v1499h92v-1499z" />
<glyph unicode="k" horiz-adv-x="874" d="M250 545l389 401h119l-398 -409l531 -537h-121l-469 473l-51 -53v-420h-92v1690h92v-1145z" />
<glyph unicode="l" horiz-adv-x="407" d="M250 0h-92v1690h92v-1690z" />
<glyph unicode="m" horiz-adv-x="1484" d="M250 827h4q33 66 97.5 103t140.5 37q92 0 160.5 -44t105.5 -128q39 86 111.5 129t164.5 43t148.5 -29t89.5 -80t44 -118.5t11 -145.5v-594h-92v606q0 55 -6 104.5t-27.5 87.5t-61.5 60.5t-108 22.5q-74 0 -121 -30t-74.5 -77t-38 -107.5t-10.5 -121.5v-545h-92v584 q0 55 -7 108t-29.5 95t-63.5 68t-111 26q-74 0 -120 -35t-71.5 -88t-34.5 -116.5t-9 -121.5v-520h-92v946h92v-119z" />
<glyph unicode="n" horiz-adv-x="1003" d="M250 799h4q41 78 114.5 123t166.5 45q92 0 151 -28t95 -79t50.5 -123.5t14.5 -165.5v-571h-92v571q0 63 -6.5 120t-30 98.5t-68.5 66.5t-123 25q-90 0 -144 -38t-83 -97.5t-39 -133t-10 -145.5v-467h-92v946h92v-147z" />
<glyph unicode="o" horiz-adv-x="1120" d="M551 881q-84 0 -156.5 -33t-125 -89.5t-82 -131t-29.5 -156.5q0 -80 29.5 -153.5t83 -130t125 -89t155.5 -32.5q86 0 161.5 30.5t131 86t87.5 129t32 159.5q0 88 -32 163t-87.5 130t-130 86t-162.5 31zM557 967q104 0 195.5 -38t158 -103.5t105.5 -156.5t39 -196 q0 -104 -39 -195.5t-105.5 -157t-157.5 -103t-196 -37.5q-102 0 -191.5 38.5t-156 106.5t-105 157t-38.5 189q0 102 37.5 192.5t104 158t157 106.5t192.5 39z" />
<glyph unicode="p" horiz-adv-x="1146" d="M250 776h4q27 45 66.5 81t88 60.5t100.5 37t105 12.5q109 0 195 -40t146.5 -107.5t93 -159t32.5 -195.5t-32.5 -192.5t-92 -154t-145.5 -102t-193 -36.5q-111 0 -208 46t-156 138h-4v-717h-92v1499h92v-170zM616 881q-90 0 -159.5 -35t-116.5 -94.5t-71.5 -136 t-24.5 -162.5q0 -84 26.5 -155t75.5 -122t119 -80.5t156 -29.5q82 0 150.5 32.5t116.5 87t74.5 126t26.5 151.5q0 82 -25.5 156.5t-73.5 133t-118 93.5t-156 35z" />
<glyph unicode="q" horiz-adv-x="1146" d="M989 -553h-92v717h-4q-59 -92 -156.5 -138t-208.5 -46q-106 0 -192 36.5t-145.5 101t-92 153.5t-32.5 192q0 104 32.5 196.5t93 160t146.5 107.5t194 40q51 0 104.5 -12.5t101.5 -37t88 -60.5t67 -81h4v170h92v-1499zM530 881q-90 0 -159.5 -35t-116.5 -94.5t-71.5 -136 t-24.5 -162.5q0 -84 26.5 -155t75.5 -122t119 -80.5t156 -29.5q82 0 150.5 32.5t116.5 87t74.5 126t26.5 151.5q0 82 -25.5 156.5t-73.5 133t-118 93.5t-156 35z" />
<glyph unicode="r" horiz-adv-x="569" d="M250 823h4q29 66 79 105t126 39q29 0 52.5 -6.5t47.5 -16.5l-49 -82q-16 10 -31.5 14.5t-34.5 4.5q-78 0 -117.5 -43t-57 -104.5t-18.5 -130t-1 -120.5v-483h-92v946h92v-123z" />
<glyph unicode="s" horiz-adv-x="768" d="M555 774q-23 49 -67 78t-99 29q-31 0 -59.5 -11.5t-51 -32t-37 -47t-14.5 -57.5q0 -57 34 -89t85 -54.5t111.5 -43t112 -52t85 -83t33.5 -137.5q0 -66 -23.5 -120t-65.5 -92.5t-97.5 -60t-118.5 -21.5q-119 0 -208 66.5t-118 182.5l90 29q27 -86 84.5 -139t151.5 -53 q90 0 151.5 61t61.5 152q0 43 -15.5 73.5t-41 51t-59.5 35t-68 26.5q-49 18 -98.5 38.5t-89.5 50.5t-64.5 72t-24.5 101q0 53 21.5 97t56.5 76t82 49.5t98 17.5q72 0 141.5 -43t100.5 -109z" />
<glyph unicode="t" horiz-adv-x="428" d="M260 0h-92v860h-105v86h105v338h92v-338h166v-86h-166v-860z" />
<glyph unicode="u" horiz-adv-x="966" d="M823 946v-567q0 -72 -6 -142.5t-51 -130.5q-49 -66 -126 -96t-157 -30t-156.5 30.5t-125.5 95.5q-45 59 -51.5 130t-6.5 143v567h93v-534q0 -68 7 -131.5t31.5 -110.5t73.5 -75.5t135 -28.5t135.5 28.5t74 75.5t31.5 110.5t7 131.5v534h92z" />
<glyph unicode="v" horiz-adv-x="886" d="M446 166l336 780h95l-433 -997l-434 997h94z" />
<glyph unicode="w" horiz-adv-x="1540" d="M438 170l334 827l336 -827l328 776h94l-428 -997l-334 817l-332 -817l-426 997h94z" />
<glyph unicode="x" horiz-adv-x="907" d="M41 946h111l301 -383l303 383h110l-352 -446l385 -500h-108l-338 434l-336 -434h-109l385 500z" />
<glyph unicode="y" horiz-adv-x="942" d="M-14 946h96l403 -856l363 856h94l-635 -1499h-94l227 537z" />
<glyph unicode="z" horiz-adv-x="983" d="M969 86v-86h-963l774 860h-649v86h842l-772 -860h768z" />
<glyph unicode="{" horiz-adv-x="614" d="M84 612q35 25 62.5 48.5t47 50t29.5 59.5t10 78v360q0 88 13.5 150.5t47.5 103.5t91 60.5t145 21.5v-94q-35 0 -69.5 -5t-63 -22.5t-47 -49.5t-18.5 -87v-381q0 -78 -9.5 -130t-29 -89t-47 -63.5t-64.5 -51.5v-10q37 -25 64.5 -51.5t47 -64t29 -93t9.5 -135.5v-379 q0 -55 18.5 -87t47 -49t63.5 -22.5t69 -5.5v-90q-88 2 -145 22.5t-91 60.5t-47.5 101.5t-13.5 149.5v361q0 45 -10 78.5t-29.5 62.5t-47 53.5t-62.5 48.5v90z" />
<glyph unicode="|" horiz-adv-x="655" d="M279 1610h98v-2048h-98v2048z" />
<glyph unicode="}" horiz-adv-x="614" d="M530 522q-72 -51 -110.5 -103t-38.5 -140v-361q0 -88 -13.5 -149.5t-47 -101.5t-91 -60.5t-145.5 -22.5v90q33 0 68.5 5.5t64.5 22.5t47.5 49t18.5 87v379q0 80 9 135.5t28.5 93t47 64.5t64.5 51v10q-37 25 -64.5 51.5t-47 63.5t-28.5 89t-9 130v381q0 55 -18.5 87 t-47.5 49.5t-64.5 22.5t-68.5 5v94q88 -2 145.5 -21.5t91 -60.5t47 -103.5t13.5 -150.5v-360q0 -45 10 -78t29.5 -59.5t47.5 -50t62 -48.5v-90z" />
<glyph unicode="~" d="M412 643q55 0 117.5 -22.5t121.5 -51.5l116 -55q54 -27 95 -27q70 0 116 48.5t83 115.5l98 -47q-27 -41 -57.5 -81t-67.5 -71.5t-80 -51t-94 -19.5q-55 0 -111.5 24.5t-111.5 53.5q-57 29 -113.5 53.5t-111.5 24.5q-70 0 -117 -45.5t-88 -106.5l-96 47l56 70 q30 37 66.5 68.5t80 52t98.5 20.5z" />
<glyph d="M1251 1403l-30 -107q-84 96 -174.5 136.5t-229.5 40.5q-211 0 -352 -144q-147 -152 -178 -424h817l-29 -92h-796v-51q0 -27 1 -51.5t3 -51.5h745l-29 -92h-702q43 -219 172 -352q143 -143 358 -143q154 0 244 39q66 27 150 104v-119q-90 -68 -170 -94q-80 -23 -220 -22 q-262 0 -430 167q-160 160 -204 420h-181l29 92h139q-2 29 -3 55.5t-1 55.5v43h-164l29 92h143q33 285 195 465q176 195 444 195q256 0 424 -162z" />
<glyph unicode="&#x20ac;" d="M1251 1403l-30 -107q-84 96 -174.5 136.5t-229.5 40.5q-211 0 -352 -144q-147 -152 -178 -424h817l-29 -92h-796v-51q0 -27 1 -51.5t3 -51.5h745l-29 -92h-702q43 -219 172 -352q143 -143 358 -143q154 0 244 39q66 27 150 104v-119q-90 -68 -170 -94q-80 -23 -220 -22 q-262 0 -430 167q-160 160 -204 420h-181l29 92h139q-2 29 -3 55.5t-1 55.5v43h-164l29 92h143q33 285 195 465q176 195 444 195q256 0 424 -162z" />
<glyph horiz-adv-x="1163" d="M606 1671l-282 219l77 58l205 -156l209 156l74 -58zM1112 92v-92h-1087l942 1452h-852v92h1024l-942 -1452h915z" />
<glyph unicode="&#x17d;" horiz-adv-x="1163" d="M606 1671l-282 219l77 58l205 -156l209 156l74 -58zM1112 92v-92h-1087l942 1452h-852v92h1024l-942 -1452h915z" />
<glyph horiz-adv-x="983" d="M543 1145l-283 219l78 57l205 -155l209 155l73 -57zM969 86v-86h-963l774 860h-649v86h842l-772 -860h768z" />
<glyph unicode="&#x17e;" horiz-adv-x="983" d="M543 1145l-283 219l78 57l205 -155l209 155l73 -57zM969 86v-86h-963l774 860h-649v86h842l-772 -860h768z" />
<glyph unicode="&#xa1;" horiz-adv-x="655" d="M377 -594h-98v1251h98v-1251zM328 967q35 0 59.5 -24.5t24.5 -59.5t-25 -59.5t-59 -24.5q-35 0 -59.5 24.5t-24.5 59.5t24.5 59.5t59.5 24.5z" />
<glyph unicode="&#xa2;" d="M647 1192q-74 -10 -135 -47t-106.5 -92.5t-70 -124t-24.5 -142.5t24.5 -142.5t70 -123.5t106.5 -92t135 -47v811zM1036 1040q-59 66 -135 108t-162 48v-817q92 8 172 54t133 116h5v-125q-66 -55 -145 -91t-165 -40v-262h-92v264q-92 8 -170 50t-135 107.5t-90 148.5 t-33 175q0 96 31 183.5t86 155t134 111.5t177 54v240h92v-238q82 -4 159 -34.5t138 -84.5v-123z" />
<glyph unicode="&#xa3;" d="M131 59q49 57 124 96.5t151 37.5q53 45 92 107t39 136l-7 60h-254v92h230l-166 282q-49 78 -80 146.5t-31 161.5q0 84 34 155.5t90.5 122.5t131 80t156.5 29q86 0 158.5 -33t126 -88t82 -130t26.5 -157h-98q0 68 -21.5 125t-62.5 100t-97.5 67t-125.5 24 q-61 0 -116.5 -25t-96.5 -67t-64.5 -97t-23.5 -117q0 -66 29.5 -125t64.5 -114l102 -166q51 -82 88 -174h279v-92h-260l4 -68q0 -72 -33 -139.5t-84 -118.5l21 -6l67 -26l83 -29q42 -14 82 -25.5t67 -11.5q74 0 129 53t88 115l84 -50q-23 -39 -52.5 -76.5t-66.5 -67.5 t-80 -48t-90 -18q-53 0 -112.5 19t-119.5 42l-112 41q-53 18 -96 18q-68 0 -122.5 -36.5t-101.5 -83.5z" />
<glyph unicode="&#xa4;" d="M635 1028q-90 -2 -168 -33.5t-135.5 -87t-90 -130.5t-30.5 -163q2 -84 36 -158.5t91 -131t134 -90t163 -33.5t162.5 33.5t134 90t91.5 131t36 158.5q2 88 -31 163t-90 130.5t-136 87t-167 33.5zM213 1094l86 -86q84 59 161 88.5t175 29.5t175 -29.5t161 -88.5l86 86 l73 -74l-81 -82q57 -88 82.5 -162t25.5 -162t-25.5 -161.5t-82.5 -161.5l81 -82l-73 -74l-86 86q-84 -59 -161 -89t-175 -30t-175 30t-161 89l-86 -86l-74 74l82 82q-57 88 -82.5 161.5t-25.5 161.5t25.5 162t82.5 162l-82 82z" />
<glyph unicode="&#xa5;" d="M498 813h-330v92h274l-370 639h118l445 -772l444 772h119l-371 -639h275v-92h-328l-90 -154h418v-92h-418v-567h-98v567h-418v92h418z" />
<glyph unicode="&#xa6;" horiz-adv-x="655" d="M279 1354h98v-512h-98v512zM279 330h98v-512h-98v512z" />
<glyph unicode="&#xa7;" d="M393 -23v-26q2 -125 55.5 -189.5t184.5 -64.5q115 0 189.5 61.5t74.5 178.5q0 66 -27.5 109.5t-70.5 74.5t-97 50l-104 38q-72 25 -133.5 53.5t-106.5 70.5t-71.5 102.5t-26.5 146.5q0 121 60.5 213t171.5 139q-100 49 -148.5 119.5t-48.5 187.5q0 80 27.5 140.5 t77 101.5t115 61.5t138.5 20.5q96 0 160 -26t101.5 -73t56 -116.5t24.5 -155.5h-98q-2 129 -58.5 204t-195.5 75q-111 0 -180.5 -66t-69.5 -178q0 -72 26.5 -116t71 -72.5t99.5 -48.5l112 -38q57 -18 111.5 -43.5t97.5 -66.5t70 -104.5t27 -157.5q0 -119 -63.5 -205 t-168.5 -137q109 -41 164 -122t55 -196q0 -82 -28.5 -141.5t-77.5 -98t-115.5 -58t-142.5 -19.5q-186 0 -263 89t-73 263v20h98zM635 317q55 0 105.5 21.5t87 58.5t59 86t22.5 105q0 55 -22.5 105t-59 87t-87 59.5t-105.5 22.5t-105.5 -22.5t-88.5 -59.5t-60.5 -87 t-22.5 -105t22.5 -104.5t60.5 -86.5t88.5 -58.5t105.5 -21.5z" />
<glyph unicode="&#xa8;" horiz-adv-x="862" d="M623 1380q35 0 58.5 -23.5t23.5 -58.5t-24 -58t-58 -23q-35 0 -58.5 23.5t-23.5 57.5q0 35 23.5 58.5t58.5 23.5zM240 1380q35 0 58.5 -23.5t23.5 -58.5t-24 -58t-58 -23q-35 0 -58.5 23.5t-23.5 57.5q0 35 23.5 58.5t58.5 23.5z" />
<glyph unicode="&#xa9;" horiz-adv-x="1638" d="M1223 631q-6 -72 -39 -128.5t-83 -96t-113.5 -61t-131.5 -21.5q-98 0 -179 34.5t-138.5 96t-89 145.5t-31.5 180q0 98 29.5 181t86 144.5t136.5 95.5t180 34q143 0 246.5 -78t126.5 -221h-99q-8 47 -33.5 84t-62.5 63.5t-83 40t-93 13.5q-78 0 -140.5 -28t-105.5 -76 t-66.5 -112.5t-23.5 -138.5q0 -72 24.5 -137t68.5 -114.5t106.5 -79t140.5 -29.5q47 0 92 14.5t82 41t62.5 65.5t31.5 88h99zM821 78q143 0 270.5 54t220.5 148.5t147 221.5t54 272q0 143 -54 270t-147 220.5t-220 147.5t-271 54q-145 0 -272 -54t-221.5 -147.5t-148.5 -220 t-54 -270.5q0 -145 54 -272t148.5 -221.5t221.5 -148.5t272 -54zM821 -20q-164 0 -309 62t-252.5 169.5t-170 253t-62.5 309.5t62.5 307.5t170 251t252.5 170t309 62.5t307.5 -62.5t251 -170t170 -251t62.5 -307.5t-62.5 -309.5t-170 -253t-251 -169.5t-307.5 -62z" />
<glyph unicode="&#xaa;" horiz-adv-x="688" d="M645 985h-59v102h-4q-35 -55 -100.5 -84.5t-133.5 -29.5q-70 0 -126 23.5t-95 63.5t-60.5 95t-21.5 117q0 61 20.5 115.5t59.5 93.5t95 61.5t126 22.5q72 0 134.5 -29t101.5 -82h4v98h59v-567zM334 1495q-49 0 -89 -19.5t-69 -50t-45 -71.5t-16 -84q0 -45 15 -86t45 -73 t71 -50.5t92 -18.5q55 0 99 18.5t75 51.5t47 75t16 89q0 45 -17 85t-50 69.5t-77 47t-97 17.5z" />
<glyph unicode="&#xab;" horiz-adv-x="813" d="M430 365l-59 -56l-299 346l299 346l59 -55l-248 -291zM676 365l-60 -56l-299 346l299 346l60 -55l-248 -291z" />
<glyph unicode="&#xac;" d="M1061 649h-950v99h1048v-545h-98v446z" />
<glyph unicode="&#xad;" horiz-adv-x="389" d="M389 700v-92h-389v92h389z" />
<glyph unicode="&#x2010;" horiz-adv-x="389" d="M389 700v-92h-389v92h389z" />
<glyph unicode="&#xae;" horiz-adv-x="1638" d="M801 821q45 0 101 -1t104.5 10.5t81 41t32.5 91.5q0 43 -21.5 67.5t-55 38.5t-75.5 18.5t-81 4.5h-256v-271h170zM1208 324h-127l-247 399h-203v-399h-99v866h379q172 0 240 -61.5t68 -167.5q0 -63 -20.5 -108.5t-57.5 -73t-87 -41t-108 -15.5zM821 78q143 0 270.5 54 t220.5 148.5t147 221.5t54 272q0 143 -54 270t-147 220.5t-220 147.5t-271 54q-145 0 -272 -54t-221.5 -147.5t-148.5 -220t-54 -270.5q0 -145 54 -272t148.5 -221.5t221.5 -148.5t272 -54zM821 -20q-164 0 -309 62t-252.5 169.5t-170 253t-62.5 309.5t62.5 307.5t170 251 t252.5 170t309 62.5t307.5 -62.5t251 -170t170 -251t62.5 -307.5t-62.5 -309.5t-170 -253t-251 -169.5t-307.5 -62z" />
<glyph unicode="&#xaf;" horiz-adv-x="933" d="M778 1380v-92h-624v92h624z" />
<glyph unicode="&#xb0;" horiz-adv-x="819" d="M408 1479q-47 0 -87 -17.5t-69 -47.5t-46.5 -70.5t-17.5 -86.5q0 -94 63.5 -157.5t158.5 -63.5q45 0 86 17.5t70.5 47t47 69.5t17.5 87q0 45 -17.5 86t-47 71t-70.5 47.5t-88 17.5zM717 1257q0 -63 -24.5 -119.5t-66.5 -97.5t-97.5 -65.5t-118.5 -24.5t-120 24.5 t-97.5 65.5t-65.5 97.5t-25 119.5t24 119t65.5 98t98 66.5t120.5 24.5q63 0 118.5 -24.5t97.5 -66.5t66.5 -98t24.5 -119z" />
<glyph unicode="&#xb1;" d="M111 98h1048v-98h-1048v98zM586 1049h98v-394h475v-98h-475v-393h-98v393h-475v98h475v394z" />
<glyph unicode="&#xb2;" horiz-adv-x="761" d="M688 696v-69h-618l372 379l61 63q32 35 58.5 72t44 76.5t17.5 80.5q0 90 -67 143.5t-165 53.5q-104 0 -167.5 -54.5t-63.5 -148.5h-70q2 49 14.5 92t49.5 82q43 47 107.5 73t129.5 26q61 0 116.5 -20.5t96.5 -57.5t64.5 -86t23.5 -107q0 -47 -16.5 -90t-43 -83t-58 -75.5 t-62.5 -66.5l-279 -283h455z" />
<glyph unicode="&#xb3;" horiz-adv-x="761" d="M375 1145q90 0 149.5 49t59.5 135q0 76 -56.5 121t-138.5 45q-86 0 -135 -41t-53 -119h-70q10 104 76.5 167t183.5 63q53 0 101.5 -18.5t84 -50.5t56 -76t20.5 -93q0 -72 -40 -129t-111 -86q76 -27 121 -89t45 -136q0 -57 -22.5 -107.5t-62.5 -87.5t-93.5 -57.5 t-116.5 -20.5q-55 0 -106.5 17.5t-89.5 49.5t-60.5 76t-22.5 97h70q10 -80 62.5 -125t144.5 -45q47 0 89 15.5t72.5 41t48 62.5t17.5 80q0 92 -64.5 142t-158.5 50v70z" />
<glyph unicode="&#xb4;" horiz-adv-x="641" d="M485 1423l-254 -297l-77 35l206 301z" />
<glyph unicode="&#xb5;" horiz-adv-x="966" d="M143 -553v1499h93v-467q0 -66 9 -138.5t35.5 -134t76 -101t126.5 -39.5q86 0 135.5 28.5t74 75.5t31.5 110.5t7 131.5v534h92v-567q0 -72 -6 -142.5t-51 -130.5q-49 -66 -126 -96t-157 -30q-31 0 -67.5 10t-70.5 31.5t-62.5 53t-42.5 72.5h-4v-700h-93z" />
<glyph unicode="&#xb6;" d="M578 758q-78 0 -143.5 30.5t-112 84t-72 124t-25.5 150.5q0 193 99.5 295t316.5 102h403v-92h-81v-1817h-99v1817h-188v-1817h-98v1123z" />
<glyph unicode="&#xb7;" horiz-adv-x="634" d="M317 608q35 0 59.5 -24.5t24.5 -59.5t-24.5 -59.5t-59.5 -24.5t-59.5 24.5t-24.5 59.5t24.5 59.5t59.5 24.5z" />
<glyph unicode="&#x22c5;" horiz-adv-x="634" d="M317 608q35 0 59.5 -24.5t24.5 -59.5t-24.5 -59.5t-59.5 -24.5t-59.5 24.5t-24.5 59.5t24.5 59.5t59.5 24.5z" />
<glyph unicode="&#x2219;" horiz-adv-x="634" d="M317 608q35 0 59.5 -24.5t24.5 -59.5t-24.5 -59.5t-59.5 -24.5t-59.5 24.5t-24.5 59.5t24.5 59.5t59.5 24.5z" />
<glyph unicode="&#xb8;" horiz-adv-x="612" d="M231 -375l-77 39l190 295l115 -45z" />
<glyph unicode="&#xb9;" horiz-adv-x="761" d="M274 1475l31 69h195v-917h-70v848h-156z" />
<glyph unicode="&#xba;" horiz-adv-x="671" d="M330 1495q-49 0 -92 -18.5t-75 -50t-50.5 -73.5t-18.5 -87q0 -43 18.5 -84t50.5 -72t75 -49.5t92 -18.5q51 0 96 17.5t79 47.5t53.5 71t19.5 88q0 49 -19.5 91t-52.5 72.5t-79 48t-97 17.5zM334 1565q68 0 127 -22.5t102 -62.5t68.5 -93.5t25.5 -116.5t-25.5 -117.5 t-68.5 -94.5t-102.5 -62.5t-126.5 -22.5q-66 0 -124 23.5t-101 63.5t-69 93t-26 115q0 61 24.5 115.5t68 94.5t101.5 63.5t126 23.5z" />
<glyph unicode="&#xbb;" horiz-adv-x="813" d="M631 655l-248 291l59 55l299 -346l-299 -346l-59 56zM385 655l-248 291l60 55l299 -346l-299 -346l-60 56z" />
<glyph unicode="&#xbc;" horiz-adv-x="1904" d="M1395 1544l-916 -1579l-65 37l915 1579zM1495 752h-10l-381 -506v-8h391v514zM1700 238v-70h-135v-168h-70v168h-530v8l587 782h13v-720h135zM205 1475l31 69h194v-917h-70v848h-155z" />
<glyph unicode="&#xbd;" horiz-adv-x="1904" d="M1305 1544l-916 -1579l-65 37l915 1579zM1696 70v-70h-619l373 379l60 63q32 35 58.5 72t44 77t17.5 81q0 90 -66.5 143t-164.5 53q-104 0 -168 -54t-64 -148h-69q2 49 14 92t49 82q43 47 107.5 72.5t130.5 25.5q61 0 116.5 -20.5t96.5 -57.5t64.5 -86t23.5 -106 q0 -47 -16.5 -90t-43 -83t-58.5 -76l-62 -67l-279 -282h455zM205 1475l31 69h194v-917h-70v848h-155z" />
<glyph unicode="&#xbe;" horiz-adv-x="1904" d="M1503 1544l-915 -1579l-66 37l916 1579zM403 1145q90 0 149.5 49t59.5 135q0 76 -56 121t-138 45q-86 0 -135.5 -41t-53.5 -119h-69q10 104 76.5 167t183.5 63q53 0 101 -18.5t84 -50.5t56.5 -76t20.5 -93q0 -72 -40 -129t-112 -86q76 -27 121 -89t45 -136 q0 -57 -22.5 -107.5t-62.5 -87.5t-93 -57.5t-117 -20.5q-55 0 -106 17.5t-89 49.5t-60.5 76t-22.5 97h70q10 -80 62 -125t144 -45q47 0 89 15.5t73 41t48.5 62.5t17.5 80q0 92 -64.5 142t-159.5 50v70zM1577 752h-10l-381 -506v-8h391v514zM1782 238v-70h-135v-168h-70v168 h-530v8l587 782h13v-720h135z" />
<glyph unicode="&#xbf;" horiz-adv-x="1005" d="M508 967q35 0 59.5 -24.5t24.5 -59.5t-24.5 -59.5t-59.5 -24.5t-59.5 24.5t-24.5 59.5t24.5 59.5t59.5 24.5zM182 326q-4 70 18.5 130t64.5 104t102.5 69.5t134.5 25.5q68 0 126 -22.5t102 -63.5t69.5 -97t25.5 -122q0 -72 -22.5 -123t-61.5 -88t-92 -61.5t-116.5 -41 t-119 -34.5t-95 -48t-62.5 -77t-23 -123q0 -57 19.5 -108.5t55.5 -89t86 -60t112 -22.5q57 0 106.5 19.5t85 55t55 82.5t19.5 103q0 29 -2 55.5t-8 52.5h94q6 -33 10 -64.5t4 -66.5q0 -74 -30.5 -134t-80.5 -104t-117 -67.5t-138 -23.5q-84 0 -151.5 27.5t-116 76.5 t-75 116.5t-26.5 147.5q0 86 24.5 147.5t68.5 103.5t106.5 69.5t140.5 46.5q49 12 94 26.5t80 39t56.5 62.5t21.5 99q0 96 -64.5 157.5t-164.5 61.5q-53 0 -93 -19.5t-68 -53t-42 -76.5t-14 -88h-99z" />
<glyph unicode="&#xc0;" horiz-adv-x="1312" d="M614 1989l207 -301l-78 -35l-254 297zM657 1346l-303 -746h604zM317 508l-206 -508h-101l647 1595l646 -1595h-101l-207 508h-678z" />
<glyph unicode="&#xc1;" horiz-adv-x="1312" d="M821 1950l-254 -297l-78 35l207 301zM657 1346l-303 -746h604zM317 508l-206 -508h-101l647 1595l646 -1595h-101l-207 508h-678z" />
<glyph unicode="&#xc2;" horiz-adv-x="1312" d="M657 1948l283 -217l-78 -60l-205 158l-208 -158l-74 60zM657 1346l-303 -746h604zM317 508l-206 -508h-101l647 1595l646 -1595h-101l-207 508h-678z" />
<glyph unicode="&#xc3;" horiz-adv-x="1312" d="M360 1772q20 49 61.5 90t98.5 41q37 0 73 -12.5t71 -26.5l67 -28q33 -13 62 -13q37 0 62.5 25.5t35.5 58.5l59 -45q-14 -55 -61 -94t-105 -39q-27 0 -61.5 12t-71.5 28q-35 16 -71.5 28.5t-67.5 12.5q-39 0 -59.5 -25.5t-30.5 -58.5zM657 1346l-303 -746h604zM317 508 l-206 -508h-101l647 1595l646 -1595h-101l-207 508h-678z" />
<glyph unicode="&#xc4;" horiz-adv-x="1312" d="M848 1907q35 0 58.5 -23.5t23.5 -58.5t-23.5 -58.5t-58.5 -23.5t-58.5 23.5t-23.5 58.5t23.5 58.5t58.5 23.5zM465 1907q35 0 58.5 -23.5t23.5 -58.5t-23.5 -58.5t-58.5 -23.5t-58.5 23.5t-23.5 58.5t23.5 58.5t58.5 23.5zM657 1346l-303 -746h604zM317 508l-206 -508 h-101l647 1595l646 -1595h-101l-207 508h-678z" />
<glyph unicode="&#xc5;" horiz-adv-x="1312" d="M657 1907q-41 0 -68.5 -28t-27.5 -69t27.5 -68.5t68.5 -27.5t69 27.5t28 68.5t-28 69t-69 28zM657 1989q74 0 126.5 -52.5t52.5 -126.5t-52.5 -126t-126.5 -52t-126 52.5t-52 125.5q0 74 52 126.5t126 52.5zM657 1346l-303 -746h604zM317 508l-206 -508h-101l647 1595 l646 -1595h-101l-207 508h-678z" />
<glyph unicode="&#xc6;" horiz-adv-x="1929" d="M649 1327l-289 -727h584zM322 508l-201 -508h-111l623 1544h674l34 -92h-636l229 -561h620l39 -92h-620l287 -707h638l37 -92h-747l-205 508h-661z" />
<glyph unicode="&#xc7;" horiz-adv-x="1513" d="M682 -375l-78 39l191 295l114 -45zM1393 1229q-45 55 -104.5 99t-128 77t-141.5 50.5t-145 17.5q-145 0 -272 -57.5t-223 -156t-151.5 -227.5t-55.5 -270q0 -135 54.5 -258t152.5 -219q98 -92 228 -152.5t267 -60.5q68 0 140.5 17t142.5 48t131.5 74t104.5 96v-135 q-111 -92 -241 -142t-273 -50q-162 0 -307.5 62t-256 169.5t-176 252t-65.5 306.5q0 164 64.5 309.5t175 253t257 170t310.5 62.5q141 0 274 -52.5t238 -148.5v-135z" />
<glyph unicode="&#xc8;" horiz-adv-x="1038" d="M477 1989l207 -301l-78 -35l-254 297zM264 1452v-561h623v-92h-623v-707h639v-92h-737v1544h737v-92h-639z" />
<glyph unicode="&#xc9;" horiz-adv-x="1038" d="M725 1950l-254 -297l-78 35l207 301zM264 1452v-561h623v-92h-623v-707h639v-92h-737v1544h737v-92h-639z" />
<glyph unicode="&#xca;" horiz-adv-x="1038" d="M520 1948l283 -217l-78 -60l-205 158l-209 -158l-73 60zM264 1452v-561h623v-92h-623v-707h639v-92h-737v1544h737v-92h-639z" />
<glyph unicode="&#xcb;" horiz-adv-x="1038" d="M711 1907q35 0 58.5 -23.5t23.5 -58.5t-24 -58.5t-58 -23.5q-35 0 -58.5 23.5t-23.5 58.5t23.5 58.5t58.5 23.5zM328 1907q35 0 58.5 -23.5t23.5 -58.5t-24 -58.5t-58 -23.5q-35 0 -58.5 23.5t-23.5 58.5t23.5 58.5t58.5 23.5zM264 1452v-561h623v-92h-623v-707h639v-92 h-737v1544h737v-92h-639z" />
<glyph unicode="&#xcc;" horiz-adv-x="430" d="M174 1989l207 -301l-78 -35l-254 297zM264 0h-98v1544h98v-1544z" />
<glyph unicode="&#xcd;" horiz-adv-x="430" d="M381 1950l-254 -297l-78 35l207 301zM264 0h-98v1544h98v-1544z" />
<glyph unicode="&#xce;" horiz-adv-x="430" d="M215 1948l283 -217l-78 -60l-205 158l-209 -158l-74 60zM264 0h-98v1544h98v-1544z" />
<glyph unicode="&#xcf;" horiz-adv-x="430" d="M408 1907q35 0 58 -23.5t23 -58.5t-23.5 -58.5t-57.5 -23.5q-35 0 -58.5 23.5t-23.5 58.5t23.5 58.5t58.5 23.5zM25 1907q35 0 58 -23.5t23 -58.5t-23.5 -58.5t-57.5 -23.5q-35 0 -58.5 23.5t-23.5 58.5t23.5 58.5t58.5 23.5zM264 0h-98v1544h98v-1544z" />
<glyph unicode="&#xd0;" horiz-adv-x="1335" d="M166 797h-166v92h166v655h278q84 0 161 -8t147.5 -29.5t136 -59.5t129.5 -97q123 -115 184.5 -264.5t61.5 -315.5q0 -160 -60.5 -306.5t-177.5 -258.5q-127 -123 -268.5 -164t-313.5 -41h-278v797zM264 889h354v-92h-354v-705h178q152 0 280 39t239 148q98 98 151 225 t53 266q0 147 -56 280.5t-167 233.5t-232.5 134t-267.5 34h-178v-563z" />
<glyph unicode="&#xd1;" horiz-adv-x="1726" d="M567 1772q20 49 61.5 90t98.5 41q37 0 73 -12.5t70 -26.5l68 -28q33 -13 61 -13q37 0 62.5 25.5t36.5 58.5l59 -45q-14 -55 -61 -94t-105 -39q-27 0 -61.5 12t-71.5 28q-35 16 -71.5 28.5t-67.5 12.5q-39 0 -59.5 -25.5t-30.5 -58.5zM1561 -51l-1297 1378v-1327h-98v1565 l1296 -1368v1347h99v-1595z" />
<glyph unicode="&#xd2;" horiz-adv-x="1748" d="M834 1989l206 -301l-77 -35l-254 297zM874 1473q-145 0 -272 -56.5t-223 -152t-151.5 -222.5t-55.5 -270t55.5 -270t151.5 -222.5t223 -151.5t272 -56q143 0 271.5 56t223.5 151.5t151.5 223.5t56.5 269q0 143 -56.5 270t-151.5 222.5t-223.5 152t-271.5 56.5zM874 1565 q162 0 308.5 -62.5t255 -171t173 -253t64.5 -306.5q0 -164 -64.5 -307t-173 -252t-255 -171t-308.5 -62q-164 0 -309 62t-253.5 171t-173 252t-64.5 307q0 162 63.5 306.5t173 253t254.5 171t309 62.5z" />
<glyph unicode="&#xd3;" horiz-adv-x="1748" d="M1040 1950l-254 -297l-77 35l206 301zM874 1473q-145 0 -272 -56.5t-223 -152t-151.5 -222.5t-55.5 -270t55.5 -270t151.5 -222.5t223 -151.5t272 -56q143 0 271.5 56t223.5 151.5t151.5 223.5t56.5 269q0 143 -56.5 270t-151.5 222.5t-223.5 152t-271.5 56.5zM874 1565 q162 0 308.5 -62.5t255 -171t173 -253t64.5 -306.5q0 -164 -64.5 -307t-173 -252t-255 -171t-308.5 -62q-164 0 -309 62t-253.5 171t-173 252t-64.5 307q0 162 63.5 306.5t173 253t254.5 171t309 62.5z" />
<glyph unicode="&#xd4;" horiz-adv-x="1748" d="M874 1948l283 -217l-78 -60l-205 158l-208 -158l-74 60zM874 1473q-145 0 -272 -56.5t-223 -152t-151.5 -222.5t-55.5 -270t55.5 -270t151.5 -222.5t223 -151.5t272 -56q143 0 271.5 56t223.5 151.5t151.5 223.5t56.5 269q0 143 -56.5 270t-151.5 222.5t-223.5 152 t-271.5 56.5zM874 1565q162 0 308.5 -62.5t255 -171t173 -253t64.5 -306.5q0 -164 -64.5 -307t-173 -252t-255 -171t-308.5 -62q-164 0 -309 62t-253.5 171t-173 252t-64.5 307q0 162 63.5 306.5t173 253t254.5 171t309 62.5z" />
<glyph unicode="&#xd5;" horiz-adv-x="1748" d="M580 1772q20 49 61 90t98 41q37 0 73 -12.5t71 -26.5l67 -28q33 -13 62 -13q37 0 62.5 25.5t35.5 58.5l59 -45q-14 -55 -61 -94t-104 -39q-27 0 -62 12t-72 28q-35 16 -71.5 28.5t-67.5 12.5q-39 0 -59.5 -25.5t-30.5 -58.5zM874 1473q-145 0 -272 -56.5t-223 -152 t-151.5 -222.5t-55.5 -270t55.5 -270t151.5 -222.5t223 -151.5t272 -56q143 0 271.5 56t223.5 151.5t151.5 223.5t56.5 269q0 143 -56.5 270t-151.5 222.5t-223.5 152t-271.5 56.5zM874 1565q162 0 308.5 -62.5t255 -171t173 -253t64.5 -306.5q0 -164 -64.5 -307t-173 -252 t-255 -171t-308.5 -62q-164 0 -309 62t-253.5 171t-173 252t-64.5 307q0 162 63.5 306.5t173 253t254.5 171t309 62.5z" />
<glyph unicode="&#xd6;" horiz-adv-x="1748" d="M1067 1907q35 0 58.5 -23.5t23.5 -58.5t-23.5 -58.5t-58.5 -23.5t-58.5 23.5t-23.5 58.5t23.5 58.5t58.5 23.5zM684 1907q35 0 58.5 -23.5t23.5 -58.5t-23.5 -58.5t-58.5 -23.5t-58.5 23.5t-23.5 58.5t23.5 58.5t58.5 23.5zM874 1473q-145 0 -272 -56.5t-223 -152 t-151.5 -222.5t-55.5 -270t55.5 -270t151.5 -222.5t223 -151.5t272 -56q143 0 271.5 56t223.5 151.5t151.5 223.5t56.5 269q0 143 -56.5 270t-151.5 222.5t-223.5 152t-271.5 56.5zM874 1565q162 0 308.5 -62.5t255 -171t173 -253t64.5 -306.5q0 -164 -64.5 -307t-173 -252 t-255 -171t-308.5 -62q-164 0 -309 62t-253.5 171t-173 252t-64.5 307q0 162 63.5 306.5t173 253t254.5 171t309 62.5z" />
<glyph unicode="&#xd7;" d="M111 979l61 70l463 -463l463 463l61 -70l-459 -455l459 -458l-61 -66l-463 461l-461 -461l-63 66l460 458z" />
<glyph unicode="&#xd8;" horiz-adv-x="1748" d="M285 244q-98 106 -154.5 241.5t-56.5 286.5q0 162 63.5 306.5t173 253t255 171t308.5 62.5q152 0 287 -54.5t242 -148.5l186 186l60 -53l-189 -188q100 -106 157.5 -243.5t57.5 -291.5q0 -164 -64.5 -307t-173 -252t-255 -171t-308.5 -62q-154 0 -291 54t-241 152 l-186 -186l-56 59zM408 252q94 -84 212.5 -132t253.5 -48q143 0 271.5 56t223.5 151.5t151.5 223.5t56.5 269q0 135 -49 255t-135 212zM1335 1294q-92 84 -209.5 131.5t-251.5 47.5q-145 0 -272 -56.5t-223 -152t-151.5 -222.5t-55.5 -270q0 -133 47 -252t131 -211z" />
<glyph unicode="&#xd9;" horiz-adv-x="1351" d="M604 1989l207 -301l-78 -35l-254 297zM1102 1544h98v-962q0 -59 -2 -114.5t-11 -108t-30.5 -101.5t-60.5 -98q-78 -90 -190.5 -135t-229.5 -45t-229.5 45t-190.5 135q-39 49 -60.5 98t-30.5 101.5t-11 107.5t-2 115v962h98v-934q0 -53 1 -105t9 -102.5t23.5 -96.5 t46.5 -85q29 -37 69.5 -64.5t86.5 -47t95.5 -28.5t94.5 -9t94 9t95 28.5t87 47t70 64.5q31 39 46 85t23.5 96.5t9.5 102.5t1 105v934z" />
<glyph unicode="&#xda;" horiz-adv-x="1351" d="M872 1950l-254 -297l-77 35l207 301zM1102 1544h98v-962q0 -59 -2 -114.5t-11 -108t-30.5 -101.5t-60.5 -98q-78 -90 -190.5 -135t-229.5 -45t-229.5 45t-190.5 135q-39 49 -60.5 98t-30.5 101.5t-11 107.5t-2 115v962h98v-934q0 -53 1 -105t9 -102.5t23.5 -96.5 t46.5 -85q29 -37 69.5 -64.5t86.5 -47t95.5 -28.5t94.5 -9t94 9t95 28.5t87 47t70 64.5q31 39 46 85t23.5 96.5t9.5 102.5t1 105v934z" />
<glyph unicode="&#xdb;" horiz-adv-x="1351" d="M676 1948l282 -217l-77 -60l-205 158l-209 -158l-74 60zM1102 1544h98v-962q0 -59 -2 -114.5t-11 -108t-30.5 -101.5t-60.5 -98q-78 -90 -190.5 -135t-229.5 -45t-229.5 45t-190.5 135q-39 49 -60.5 98t-30.5 101.5t-11 107.5t-2 115v962h98v-934q0 -53 1 -105t9 -102.5 t23.5 -96.5t46.5 -85q29 -37 69.5 -64.5t86.5 -47t95.5 -28.5t94.5 -9t94 9t95 28.5t87 47t70 64.5q31 39 46 85t23.5 96.5t9.5 102.5t1 105v934z" />
<glyph unicode="&#xdc;" horiz-adv-x="1351" d="M868 1907q35 0 58.5 -23.5t23.5 -58.5t-23.5 -58.5t-58.5 -23.5t-58.5 23.5t-23.5 58.5t23.5 58.5t58.5 23.5zM485 1907q35 0 58.5 -23.5t23.5 -58.5t-23.5 -58.5t-58.5 -23.5t-58.5 23.5t-23.5 58.5t23.5 58.5t58.5 23.5zM1102 1544h98v-962q0 -59 -2 -114.5t-11 -108 t-30.5 -101.5t-60.5 -98q-78 -90 -190.5 -135t-229.5 -45t-229.5 45t-190.5 135q-39 49 -60.5 98t-30.5 101.5t-11 107.5t-2 115v962h98v-934q0 -53 1 -105t9 -102.5t23.5 -96.5t46.5 -85q29 -37 69.5 -64.5t86.5 -47t95.5 -28.5t94.5 -9t94 9t95 28.5t87 47t70 64.5 q31 39 46 85t23.5 96.5t9.5 102.5t1 105v934z" />
<glyph unicode="&#xdd;" horiz-adv-x="1144" d="M799 1950l-254 -297l-78 35l207 301zM8 1544h109l454 -782l455 782h109l-514 -885v-659h-99v659z" />
<glyph unicode="&#xde;" horiz-adv-x="966" d="M442 498q76 0 143.5 15t127.5 69q100 92 100 231q0 72 -28.5 139.5t-88.5 110.5q-59 45 -128.5 53t-141.5 8h-162v-626h178zM166 1544h98v-327h174q92 0 177 -14.5t157 -76.5q72 -59 105.5 -142t33.5 -175q0 -84 -31.5 -168t-97.5 -137q-72 -61 -162 -79.5t-182 -18.5 h-174v-406h-98v1544z" />
<glyph unicode="&#xdf;" horiz-adv-x="1093" d="M158 860h-101v86h101v385q0 72 11 142.5t58 125.5q47 59 122 88t151 29q72 0 131 -25.5t102 -69.5t67.5 -105.5t24.5 -131.5q0 -92 -47 -168.5t-133 -109.5v-4q86 -25 156.5 -77t121 -125t78 -158t27.5 -173q0 -117 -44 -218t-120 -178t-177 -126t-214 -59v86 q94 14 178 56t147.5 106.5t100.5 149.5t37 183q0 102 -35 186.5t-97.5 148t-147.5 101t-183 48.5v86q117 2 188.5 70.5t71.5 185.5q0 53 -19.5 96t-52 73.5t-78.5 48t-98 17.5q-55 0 -111.5 -23.5t-84.5 -74.5q-29 -47 -34 -112.5t-5 -121.5v-1298h-92v860z" />
<glyph unicode="&#xe0;" horiz-adv-x="1146" d="M502 1462l207 -301l-78 -35l-254 297zM989 0h-92v170h-4q-27 -45 -67 -81t-88 -60.5t-101 -36.5t-105 -12q-109 0 -194.5 38.5t-146 106.5t-93 159t-32.5 195t32.5 193.5t92 155t145.5 102.5t192 37q111 0 208.5 -47.5t156.5 -137.5h4v164h92v-946zM524 881 q-82 0 -149.5 -34t-115.5 -90.5t-74.5 -129t-26.5 -148.5q0 -82 25.5 -156.5t74.5 -132t117.5 -91t154.5 -33.5q90 0 160 33.5t117 92t71.5 135t24.5 162.5q0 82 -26.5 154t-76.5 124t-120 83t-156 31z" />
<glyph unicode="&#xe1;" horiz-adv-x="1146" d="M770 1423l-254 -297l-78 35l207 301zM989 0h-92v170h-4q-27 -45 -67 -81t-88 -60.5t-101 -36.5t-105 -12q-109 0 -194.5 38.5t-146 106.5t-93 159t-32.5 195t32.5 193.5t92 155t145.5 102.5t192 37q111 0 208.5 -47.5t156.5 -137.5h4v164h92v-946zM524 881 q-82 0 -149.5 -34t-115.5 -90.5t-74.5 -129t-26.5 -148.5q0 -82 25.5 -156.5t74.5 -132t117.5 -91t154.5 -33.5q90 0 160 33.5t117 92t71.5 135t24.5 162.5q0 82 -26.5 154t-76.5 124t-120 83t-156 31z" />
<glyph unicode="&#xe2;" horiz-adv-x="1146" d="M573 1421l283 -217l-78 -59l-205 158l-208 -158l-74 59zM989 0h-92v170h-4q-27 -45 -67 -81t-88 -60.5t-101 -36.5t-105 -12q-109 0 -194.5 38.5t-146 106.5t-93 159t-32.5 195t32.5 193.5t92 155t145.5 102.5t192 37q111 0 208.5 -47.5t156.5 -137.5h4v164h92v-946z M524 881q-82 0 -149.5 -34t-115.5 -90.5t-74.5 -129t-26.5 -148.5q0 -82 25.5 -156.5t74.5 -132t117.5 -91t154.5 -33.5q90 0 160 33.5t117 92t71.5 135t24.5 162.5q0 82 -26.5 154t-76.5 124t-120 83t-156 31z" />
<glyph unicode="&#xe3;" horiz-adv-x="1146" d="M279 1245q20 49 61 90t98 41q37 0 73 -12t71 -27l67 -27q33 -13 62 -14q37 0 62.5 26t35.5 58l59 -45q-14 -55 -61 -94t-105 -39q-27 0 -61.5 12.5t-71.5 28.5q-35 16 -71.5 28.5t-67.5 12.5q-39 0 -59.5 -25.5t-30.5 -58.5zM989 0h-92v170h-4q-27 -45 -67 -81t-88 -60.5 t-101 -36.5t-105 -12q-109 0 -194.5 38.5t-146 106.5t-93 159t-32.5 195t32.5 193.5t92 155t145.5 102.5t192 37q111 0 208.5 -47.5t156.5 -137.5h4v164h92v-946zM524 881q-82 0 -149.5 -34t-115.5 -90.5t-74.5 -129t-26.5 -148.5q0 -82 25.5 -156.5t74.5 -132t117.5 -91 t154.5 -33.5q90 0 160 33.5t117 92t71.5 135t24.5 162.5q0 82 -26.5 154t-76.5 124t-120 83t-156 31z" />
<glyph unicode="&#xe4;" horiz-adv-x="1146" d="M766 1380q35 0 58.5 -23.5t23.5 -58.5t-23.5 -58t-58.5 -23t-58.5 23.5t-23.5 57.5q0 35 23.5 58.5t58.5 23.5zM383 1380q35 0 58.5 -23.5t23.5 -58.5t-23.5 -58t-58.5 -23t-58.5 23.5t-23.5 57.5q0 35 23.5 58.5t58.5 23.5zM989 0h-92v170h-4q-27 -45 -67 -81t-88 -60.5 t-101 -36.5t-105 -12q-109 0 -194.5 38.5t-146 106.5t-93 159t-32.5 195t32.5 193.5t92 155t145.5 102.5t192 37q111 0 208.5 -47.5t156.5 -137.5h4v164h92v-946zM524 881q-82 0 -149.5 -34t-115.5 -90.5t-74.5 -129t-26.5 -148.5q0 -82 25.5 -156.5t74.5 -132t117.5 -91 t154.5 -33.5q90 0 160 33.5t117 92t71.5 135t24.5 162.5q0 82 -26.5 154t-76.5 124t-120 83t-156 31z" />
<glyph unicode="&#xe5;" horiz-adv-x="1146" d="M573 1380q-41 0 -68.5 -27.5t-27.5 -68.5t27.5 -68.5t68.5 -27.5t69 27.5t28 68.5t-28 68.5t-69 27.5zM573 1462q74 0 126.5 -52t52.5 -126t-52.5 -126t-126.5 -52t-126 52t-52 126t52 126t126 52zM989 0h-92v170h-4q-27 -45 -67 -81t-88 -60.5t-101 -36.5t-105 -12 q-109 0 -194.5 38.5t-146 106.5t-93 159t-32.5 195t32.5 193.5t92 155t145.5 102.5t192 37q111 0 208.5 -47.5t156.5 -137.5h4v164h92v-946zM524 881q-82 0 -149.5 -34t-115.5 -90.5t-74.5 -129t-26.5 -148.5q0 -82 25.5 -156.5t74.5 -132t117.5 -91t154.5 -33.5 q90 0 160 33.5t117 92t71.5 135t24.5 162.5q0 82 -26.5 154t-76.5 124t-120 83t-156 31z" />
<glyph unicode="&#xe6;" horiz-adv-x="1738" d="M1642 225q-72 -111 -179 -178t-242 -67q-59 0 -119 15t-111 46t-92 74t-65 98h-5q-16 -63 -57 -107.5t-95 -72t-117.5 -40.5t-123.5 -13q-66 0 -135.5 17t-126.5 53t-94 91.5t-37 132.5q0 80 39 137.5t99.5 92.5t133 51t140.5 16q86 0 161.5 -20.5t143.5 -79.5 q0 82 -17.5 156.5t-57.5 131t-104.5 89.5t-156.5 33q-84 0 -163 -26t-155 -60v94q154 78 336 78q133 0 229.5 -69t141.5 -193q25 59 67 107t95 83t114.5 53.5t124.5 18.5q106 0 191.5 -41t145 -111t91 -161t31.5 -191h-821q2 -80 29.5 -151.5t76 -127t116 -87t151.5 -31.5 q111 0 197.5 60t140.5 153zM455 485q-49 0 -105.5 -9t-104.5 -33.5t-79 -64.5t-31 -102q0 -63 29 -104t74 -64.5t100 -32.5t106 -9q47 0 102.5 11t102.5 36.5t79 65.5t32 97q0 59 -29 99.5t-74 65t-99 34.5t-103 10zM1581 549q-8 66 -40 125t-80 105t-109.5 74t-130.5 28 q-72 0 -136.5 -27t-113.5 -73t-81 -105.5t-38 -126.5h729z" />
<glyph unicode="&#xe7;" horiz-adv-x="976" d="M414 -375l-78 39l190 295l115 -45zM883 727q-68 74 -150 114t-184 40q-84 0 -155.5 -33t-124 -89.5t-82 -130t-29.5 -153.5t29.5 -154.5t82 -131t123 -90t154.5 -33.5q102 0 192 46t156 124v-125q-72 -63 -160 -97t-184 -34q-104 0 -193.5 38.5t-154 105t-101 157 t-36.5 194.5q0 102 36.5 192.5t102 157t155 104.5t193.5 38q92 0 175 -29t155 -88v-123z" />
<glyph unicode="&#xe8;" horiz-adv-x="1044" d="M451 1462l206 -301l-77 -35l-254 297zM887 551q-8 66 -38 125t-78 105t-109.5 73t-135.5 27q-72 0 -136 -27t-113.5 -72t-81 -104.5t-37.5 -126.5h729zM158 465q-2 -90 25.5 -164t78.5 -126t122 -80.5t153 -28.5q111 0 196.5 59t136.5 156l78 -45q-66 -123 -174 -189.5 t-250 -66.5q-104 0 -189 39.5t-145.5 107.5t-92 158t-31.5 190q0 98 32.5 187.5t93 157t144.5 107.5t188 40q106 0 191.5 -40t144 -108.5t89 -160t30.5 -193.5h-821z" />
<glyph unicode="&#xe9;" horiz-adv-x="1044" d="M719 1423l-254 -297l-78 35l207 301zM887 551q-8 66 -38 125t-78 105t-109.5 73t-135.5 27q-72 0 -136 -27t-113.5 -72t-81 -104.5t-37.5 -126.5h729zM158 465q-2 -90 25.5 -164t78.5 -126t122 -80.5t153 -28.5q111 0 196.5 59t136.5 156l78 -45q-66 -123 -174 -189.5 t-250 -66.5q-104 0 -189 39.5t-145.5 107.5t-92 158t-31.5 190q0 98 32.5 187.5t93 157t144.5 107.5t188 40q106 0 191.5 -40t144 -108.5t89 -160t30.5 -193.5h-821z" />
<glyph unicode="&#xea;" horiz-adv-x="1044" d="M522 1421l283 -217l-78 -59l-205 158l-209 -158l-73 59zM887 551q-8 66 -38 125t-78 105t-109.5 73t-135.5 27q-72 0 -136 -27t-113.5 -72t-81 -104.5t-37.5 -126.5h729zM158 465q-2 -90 25.5 -164t78.5 -126t122 -80.5t153 -28.5q111 0 196.5 59t136.5 156l78 -45 q-66 -123 -174 -189.5t-250 -66.5q-104 0 -189 39.5t-145.5 107.5t-92 158t-31.5 190q0 98 32.5 187.5t93 157t144.5 107.5t188 40q106 0 191.5 -40t144 -108.5t89 -160t30.5 -193.5h-821z" />
<glyph unicode="&#xeb;" horiz-adv-x="1044" d="M715 1380q35 0 58.5 -23.5t23.5 -58.5t-23.5 -58t-58.5 -23t-58.5 23.5t-23.5 57.5q0 35 23.5 58.5t58.5 23.5zM332 1380q35 0 58.5 -23.5t23.5 -58.5t-23.5 -58t-58.5 -23t-58.5 23.5t-23.5 57.5q0 35 23.5 58.5t58.5 23.5zM887 551q-8 66 -38 125t-78 105t-109.5 73 t-135.5 27q-72 0 -136 -27t-113.5 -72t-81 -104.5t-37.5 -126.5h729zM158 465q-2 -90 25.5 -164t78.5 -126t122 -80.5t153 -28.5q111 0 196.5 59t136.5 156l78 -45q-66 -123 -174 -189.5t-250 -66.5q-104 0 -189 39.5t-145.5 107.5t-92 158t-31.5 190q0 98 32.5 187.5 t93 157t144.5 107.5t188 40q106 0 191.5 -40t144 -108.5t89 -160t30.5 -193.5h-821z" />
<glyph unicode="&#xec;" horiz-adv-x="479" d="M168 1462l207 -301l-78 -35l-254 297zM285 0h-92v946h92v-946z" />
<glyph unicode="&#xed;" horiz-adv-x="479" d="M436 1423l-254 -297l-78 35l207 301zM285 0h-92v946h92v-946z" />
<glyph unicode="&#xee;" horiz-adv-x="479" d="M240 1421l282 -217l-78 -59l-204 158l-209 -158l-74 59zM285 0h-92v946h92v-946z" />
<glyph unicode="&#xef;" horiz-adv-x="479" d="M432 1380q35 0 58.5 -23.5t23.5 -58.5t-23.5 -58t-58.5 -23t-58.5 23.5t-23.5 57.5q0 35 23.5 58.5t58.5 23.5zM49 1380q35 0 58.5 -23.5t23.5 -58.5t-23.5 -58t-58.5 -23t-58.5 23.5t-23.5 57.5q0 35 23.5 58.5t58.5 23.5zM285 0h-92v946h92v-946z" />
<glyph unicode="&#xf0;" horiz-adv-x="1120" d="M551 881q-84 0 -156.5 -33t-125 -89.5t-82 -131t-29.5 -156.5q0 -80 29.5 -153.5t83 -130t125 -89t155.5 -32.5q86 0 161.5 30.5t131 86t87.5 129t32 159.5q0 88 -32 163t-87.5 130t-130 86t-162.5 31zM248 1696l144 -91q67 -44 140 -104l318 178l51 -67l-301 -168 q100 -88 184 -190.5t143.5 -218t93.5 -241.5t34 -262q0 -145 -43 -249.5t-114 -172t-160 -99t-181 -31.5q-102 0 -192.5 38.5t-157 106.5t-104 158t-37.5 190q0 98 37.5 188.5t104 159t158 108.5t197.5 40q68 0 122 -14.5t96 -36t74 -47t54 -46.5q-27 76 -59.5 146.5 t-77.5 139.5t-106.5 138.5t-147.5 147.5l-299 -168l-51 69l281 154q-63 53 -130 97t-137 85z" />
<glyph unicode="&#xf1;" horiz-adv-x="1003" d="M207 1245q20 49 61 90t99 41q37 0 72.5 -12t70.5 -27l68 -27q33 -13 61 -14q37 0 62.5 26t35.5 58l60 -45q-14 -55 -61.5 -94t-104.5 -39q-27 0 -61.5 12.5t-71.5 28.5q-35 16 -72 28.5t-68 12.5q-39 0 -59 -25.5t-31 -58.5zM250 799h4q41 78 114.5 123t166.5 45 q92 0 151 -28t95 -79t50.5 -123.5t14.5 -165.5v-571h-92v571q0 63 -6.5 120t-30 98.5t-68.5 66.5t-123 25q-90 0 -144 -38t-83 -97.5t-39 -133t-10 -145.5v-467h-92v946h92v-147z" />
<glyph unicode="&#xf2;" horiz-adv-x="1120" d="M487 1462l207 -301l-78 -35l-254 297zM551 881q-84 0 -156.5 -33t-125 -89.5t-82 -131t-29.5 -156.5q0 -80 29.5 -153.5t83 -130t125 -89t155.5 -32.5q86 0 161.5 30.5t131 86t87.5 129t32 159.5q0 88 -32 163t-87.5 130t-130 86t-162.5 31zM557 967q104 0 195.5 -38 t158 -103.5t105.5 -156.5t39 -196q0 -104 -39 -195.5t-105.5 -157t-157.5 -103t-196 -37.5q-102 0 -191.5 38.5t-156 106.5t-105 157t-38.5 189q0 102 37.5 192.5t104 158t157 106.5t192.5 39z" />
<glyph unicode="&#xf3;" horiz-adv-x="1120" d="M756 1423l-254 -297l-78 35l207 301zM551 881q-84 0 -156.5 -33t-125 -89.5t-82 -131t-29.5 -156.5q0 -80 29.5 -153.5t83 -130t125 -89t155.5 -32.5q86 0 161.5 30.5t131 86t87.5 129t32 159.5q0 88 -32 163t-87.5 130t-130 86t-162.5 31zM557 967q104 0 195.5 -38 t158 -103.5t105.5 -156.5t39 -196q0 -104 -39 -195.5t-105.5 -157t-157.5 -103t-196 -37.5q-102 0 -191.5 38.5t-156 106.5t-105 157t-38.5 189q0 102 37.5 192.5t104 158t157 106.5t192.5 39z" />
<glyph unicode="&#xf4;" horiz-adv-x="1120" d="M561 1421l283 -217l-78 -59l-205 158l-209 -158l-73 59zM551 881q-84 0 -156.5 -33t-125 -89.5t-82 -131t-29.5 -156.5q0 -80 29.5 -153.5t83 -130t125 -89t155.5 -32.5q86 0 161.5 30.5t131 86t87.5 129t32 159.5q0 88 -32 163t-87.5 130t-130 86t-162.5 31zM557 967 q104 0 195.5 -38t158 -103.5t105.5 -156.5t39 -196q0 -104 -39 -195.5t-105.5 -157t-157.5 -103t-196 -37.5q-102 0 -191.5 38.5t-156 106.5t-105 157t-38.5 189q0 102 37.5 192.5t104 158t157 106.5t192.5 39z" />
<glyph unicode="&#xf5;" horiz-adv-x="1120" d="M264 1245q20 49 61.5 90t98.5 41q37 0 72.5 -12t70.5 -27l68 -27q33 -13 61 -14q37 0 62.5 26t36.5 58l59 -45q-14 -55 -61.5 -94t-104.5 -39q-27 0 -61.5 12.5t-71.5 28.5q-35 16 -72 28.5t-67 12.5q-39 0 -59.5 -25.5t-30.5 -58.5zM551 881q-84 0 -156.5 -33 t-125 -89.5t-82 -131t-29.5 -156.5q0 -80 29.5 -153.5t83 -130t125 -89t155.5 -32.5q86 0 161.5 30.5t131 86t87.5 129t32 159.5q0 88 -32 163t-87.5 130t-130 86t-162.5 31zM557 967q104 0 195.5 -38t158 -103.5t105.5 -156.5t39 -196q0 -104 -39 -195.5t-105.5 -157 t-157.5 -103t-196 -37.5q-102 0 -191.5 38.5t-156 106.5t-105 157t-38.5 189q0 102 37.5 192.5t104 158t157 106.5t192.5 39z" />
<glyph unicode="&#xf6;" horiz-adv-x="1120" d="M752 1380q35 0 58.5 -23.5t23.5 -58.5t-24 -58t-58 -23q-35 0 -58.5 23.5t-23.5 57.5q0 35 23.5 58.5t58.5 23.5zM369 1380q35 0 58.5 -23.5t23.5 -58.5t-24 -58t-58 -23q-35 0 -58.5 23.5t-23.5 57.5q0 35 23.5 58.5t58.5 23.5zM551 881q-84 0 -156.5 -33t-125 -89.5 t-82 -131t-29.5 -156.5q0 -80 29.5 -153.5t83 -130t125 -89t155.5 -32.5q86 0 161.5 30.5t131 86t87.5 129t32 159.5q0 88 -32 163t-87.5 130t-130 86t-162.5 31zM557 967q104 0 195.5 -38t158 -103.5t105.5 -156.5t39 -196q0 -104 -39 -195.5t-105.5 -157t-157.5 -103 t-196 -37.5q-102 0 -191.5 38.5t-156 106.5t-105 157t-38.5 189q0 102 37.5 192.5t104 158t157 106.5t192.5 39z" />
<glyph unicode="&#xf7;" d="M635 1049q35 0 59.5 -25t24.5 -59q0 -35 -24.5 -59.5t-59.5 -24.5t-59.5 24.5t-24.5 59.5t24.5 59.5t59.5 24.5zM635 168q35 0 59.5 -24.5t24.5 -59.5t-24.5 -59.5t-59.5 -24.5t-59.5 24.5t-24.5 59.5t24.5 59.5t59.5 24.5zM111 573h1048v-98h-1048v98z" />
<glyph unicode="&#xf8;" horiz-adv-x="1120" d="M180 158q-115 133 -114 313q0 102 37.5 192.5t104 158t157 106.5t192.5 39q92 0 173 -30t147 -83l129 129l57 -59l-127 -127q55 -61 87 -144.5t32 -179.5q0 -104 -39 -195.5t-105.5 -157t-157.5 -103t-196 -37.5q-94 0 -176 32.5t-145 89.5l-123 -122l-56 55zM297 164 q51 -47 115.5 -72.5t138.5 -25.5q86 0 161.5 30.5t131 86t87.5 129t32 159.5q0 78 -25 143.5t-68 116.5zM813 791q-53 43 -119.5 66.5t-142.5 23.5q-84 0 -156.5 -33t-125 -89.5t-82 -131t-29.5 -156.5q0 -70 22.5 -134.5t63.5 -115.5z" />
<glyph unicode="&#xf9;" horiz-adv-x="966" d="M391 1462l207 -301l-78 -35l-254 297zM823 946v-567q0 -72 -6 -142.5t-51 -130.5q-49 -66 -126 -96t-157 -30t-156.5 30.5t-125.5 95.5q-45 59 -51.5 130t-6.5 143v567h93v-534q0 -68 7 -131.5t31.5 -110.5t73.5 -75.5t135 -28.5t135.5 28.5t74 75.5t31.5 110.5t7 131.5 v534h92z" />
<glyph unicode="&#xfa;" horiz-adv-x="966" d="M700 1423l-254 -297l-77 35l206 301zM823 946v-567q0 -72 -6 -142.5t-51 -130.5q-49 -66 -126 -96t-157 -30t-156.5 30.5t-125.5 95.5q-45 59 -51.5 130t-6.5 143v567h93v-534q0 -68 7 -131.5t31.5 -110.5t73.5 -75.5t135 -28.5t135.5 28.5t74 75.5t31.5 110.5t7 131.5 v534h92z" />
<glyph unicode="&#xfb;" horiz-adv-x="966" d="M483 1421l283 -217l-78 -59l-205 158l-209 -158l-73 59zM823 946v-567q0 -72 -6 -142.5t-51 -130.5q-49 -66 -126 -96t-157 -30t-156.5 30.5t-125.5 95.5q-45 59 -51.5 130t-6.5 143v567h93v-534q0 -68 7 -131.5t31.5 -110.5t73.5 -75.5t135 -28.5t135.5 28.5t74 75.5 t31.5 110.5t7 131.5v534h92z" />
<glyph unicode="&#xfc;" horiz-adv-x="966" d="M676 1380q35 0 58.5 -23.5t23.5 -58.5t-23.5 -58t-58.5 -23t-58.5 23.5t-23.5 57.5q0 35 23.5 58.5t58.5 23.5zM293 1380q35 0 58.5 -23.5t23.5 -58.5t-23.5 -58t-58.5 -23t-58.5 23.5t-23.5 57.5q0 35 23.5 58.5t58.5 23.5zM823 946v-567q0 -72 -6 -142.5t-51 -130.5 q-49 -66 -126 -96t-157 -30t-156.5 30.5t-125.5 95.5q-45 59 -51.5 130t-6.5 143v567h93v-534q0 -68 7 -131.5t31.5 -110.5t73.5 -75.5t135 -28.5t135.5 28.5t74 75.5t31.5 110.5t7 131.5v534h92z" />
<glyph unicode="&#xfd;" horiz-adv-x="942" d="M698 1423l-254 -297l-77 35l206 301zM-14 946h96l403 -856l363 856h94l-635 -1499h-94l227 537z" />
<glyph unicode="&#xfe;" horiz-adv-x="1146" d="M250 -553h-92v2243h92v-914h4q27 45 66.5 81t88 60.5t100.5 37t105 12.5q109 0 195 -40t146.5 -107.5t93 -159t32.5 -195.5t-32.5 -192.5t-92 -154t-145.5 -102t-193 -36.5q-111 0 -208 46t-156 138h-4v-717zM616 881q-90 0 -159.5 -35t-116.5 -94.5t-71.5 -136 t-24.5 -162.5q0 -84 26.5 -155t75.5 -122t119 -80.5t156 -29.5q82 0 150.5 32.5t116.5 87t74.5 126t26.5 151.5q0 82 -25.5 156.5t-73.5 133t-118 93.5t-156 35z" />
<glyph unicode="&#xff;" horiz-adv-x="942" d="M674 1380q35 0 58.5 -23.5t23.5 -58.5t-23.5 -58t-58.5 -23t-58.5 23.5t-23.5 57.5q0 35 23.5 58.5t58.5 23.5zM291 1380q35 0 58.5 -23.5t23.5 -58.5t-23.5 -58t-58.5 -23t-58.5 23.5t-23.5 57.5q0 35 23.5 58.5t58.5 23.5zM-14 946h96l403 -856l363 856h94l-635 -1499 h-94l227 537z" />
<glyph unicode="&#x152;" horiz-adv-x="2443" d="M879 1473q-141 0 -270.5 -56.5t-225.5 -152t-153.5 -222.5t-57.5 -270q0 -141 55.5 -271t159.5 -229q96 -94 224 -147t263 -53q141 0 273.5 57t230.5 160q94 98 142.5 222t48.5 261q0 141 -54.5 269t-147.5 223.5t-219 152t-269 56.5zM1571 397h-4q-47 -98 -121 -175 t-166 -131t-196.5 -82.5t-211.5 -28.5q-154 0 -298 59t-255 164q-119 113 -182 259t-63 310q0 166 64.5 310.5t175 252t257 169t310.5 61.5q106 0 209.5 -30t193.5 -85t163 -133t120 -174h4v401h737v-92h-639v-561h625v-92h-625v-707h639v-92h-737v397z" />
<glyph unicode="&#x153;" horiz-adv-x="1935" d="M565 881q-88 0 -162.5 -33t-129 -89.5t-85 -132t-30.5 -161.5q0 -80 31.5 -152.5t86 -127t126 -87t153.5 -32.5q84 0 157.5 31.5t129 87t87.5 129t32 157.5q0 82 -31 156.5t-84 131t-125 89.5t-156 33zM1778 551q-8 66 -38 125t-78 105t-109.5 73t-135.5 27 q-72 0 -135 -27t-112.5 -72t-80 -104.5t-36.5 -126.5h725zM1053 465q-4 -82 22.5 -154.5t77.5 -127t120.5 -86t151.5 -31.5q117 0 201 57t133 162l78 -47q-61 -125 -171 -191.5t-249 -66.5q-68 0 -131 19t-117.5 56t-96.5 88.5t-66 114.5q-31 -63 -77 -114.5t-104.5 -88.5 t-125 -56t-136.5 -19q-104 0 -194 37.5t-158 104t-106.5 156t-38.5 193.5t39.5 195.5t107.5 158t159 104.5t195 38q70 0 136.5 -19.5t124 -55.5t103.5 -86t75 -114q49 131 159.5 203t249.5 72q111 0 196 -40t142 -107.5t87 -159t30 -195.5h-817z" />
<glyph unicode="&#x178;" horiz-adv-x="1144" d="M788 1907q35 0 58.5 -23.5t23.5 -58.5t-23.5 -58.5t-58.5 -23.5t-58 23.5t-23 58.5t23 58.5t58 23.5zM406 1907q35 0 58 -23.5t23 -58.5t-23.5 -58.5t-57.5 -23.5q-35 0 -58.5 23.5t-23.5 58.5t23.5 58.5t58.5 23.5zM8 1544h109l454 -782l455 782h109l-514 -885v-659h-99 v659z" />
<glyph unicode="&#x2c6;" horiz-adv-x="872" d="M436 1421l283 -217l-78 -59l-205 158l-209 -158l-73 59z" />
<glyph unicode="&#x2dc;" horiz-adv-x="899" d="M154 1245q20 49 61 90t98 41q37 0 73 -12t71 -27l67 -27q33 -13 62 -14q37 0 62.5 26t35.5 58l59 -45q-14 -55 -61 -94t-104 -39q-27 0 -62 12.5t-72 28.5q-35 16 -71.5 28.5t-67.5 12.5q-39 0 -59.5 -25.5t-30.5 -58.5z" />
<glyph unicode="&#x2000;" horiz-adv-x="993" />
<glyph unicode="&#x2001;" horiz-adv-x="1988" />
<glyph unicode="&#x2002;" horiz-adv-x="993" />
<glyph unicode="&#x2003;" horiz-adv-x="1988" />
<glyph unicode="&#x2004;" horiz-adv-x="661" />
<glyph unicode="&#x2005;" horiz-adv-x="495" />
<glyph unicode="&#x2006;" horiz-adv-x="329" />
<glyph unicode="&#x2007;" horiz-adv-x="329" />
<glyph unicode="&#x2008;" horiz-adv-x="247" />
<glyph unicode="&#x2009;" horiz-adv-x="397" />
<glyph unicode="&#x200a;" horiz-adv-x="108" />
<glyph unicode="&#x2011;" horiz-adv-x="389" d="M389 700v-92h-389v92h389z" />
<glyph unicode="&#x2012;" horiz-adv-x="389" d="M389 700v-92h-389v92h389z" />
<glyph unicode="&#x2013;" horiz-adv-x="1024" d="M1024 700v-92h-1024v92h1024z" />
<glyph unicode="&#x2014;" horiz-adv-x="2048" d="M1782 700v-92h-1516v92h1516z" />
<glyph unicode="&#x2018;" horiz-adv-x="530" d="M150 1100l169 465l62 -23l-139 -469z" />
<glyph unicode="&#x2019;" horiz-adv-x="530" d="M381 1538l-170 -465l-61 23l139 469z" />
<glyph unicode="&#x201a;" horiz-adv-x="530" d="M381 123l-170 -463l-61 23l139 469z" />
<glyph unicode="&#x201c;" horiz-adv-x="798" d="M150 1100l169 465l62 -23l-139 -469zM418 1100l170 465l61 -23l-139 -469z" />
<glyph unicode="&#x201d;" horiz-adv-x="798" d="M649 1538l-170 -465l-61 23l139 469zM381 1538l-170 -465l-61 23l139 469z" />
<glyph unicode="&#x201e;" horiz-adv-x="798" d="M649 123l-170 -463l-61 23l139 469zM381 123l-170 -463l-61 23l139 469z" />
<glyph unicode="&#x2022;" d="M637 1159q82 0 152.5 -30.5t123 -83t81 -123t28.5 -150.5t-28.5 -149.5t-81 -121.5t-123 -83t-152.5 -31q-84 0 -154.5 31t-122 83t-81 121.5t-29.5 149.5t29.5 150.5t81 123t122 83t154.5 30.5z" />
<glyph unicode="&#x2026;" horiz-adv-x="2048" d="M1706 154q35 0 59.5 -25t24.5 -59q0 -35 -24.5 -59.5t-59.5 -24.5t-59.5 24.5t-24.5 59.5t24.5 59.5t59.5 24.5zM1024 154q35 0 59.5 -25t24.5 -59q0 -35 -24.5 -59.5t-59.5 -24.5t-59.5 24.5t-24.5 59.5t24.5 59.5t59.5 24.5zM342 154q35 0 59.5 -25t24.5 -59 q0 -35 -24.5 -59.5t-59.5 -24.5t-59.5 24.5t-24.5 59.5t24.5 59.5t59.5 24.5z" />
<glyph unicode="&#x202f;" horiz-adv-x="397" />
<glyph unicode="&#x2039;" horiz-adv-x="567" d="M430 365l-59 -56l-299 346l299 346l59 -55l-248 -291z" />
<glyph unicode="&#x203a;" horiz-adv-x="567" d="M385 655l-248 291l60 55l299 -346l-299 -346l-60 56z" />
<glyph unicode="&#x205f;" horiz-adv-x="495" />
<glyph unicode="&#x2122;" horiz-adv-x="1925" d="M1092 1544l280 -670h4l285 670h147v-862h-86v776h-8l-338 -776h-4l-334 776h-8v-776h-86v862h148zM774 1458h-285v-776h-86v776h-284v86h655v-86z" />
<glyph unicode="&#xe000;" horiz-adv-x="945" d="M0 945h945v-945h-945v945z" />
<glyph unicode="&#xfb01;" horiz-adv-x="970" d="M732 1346q35 0 59.5 -25t24.5 -59q0 -35 -25 -59.5t-59 -24.5q-35 0 -59.5 24.5t-24.5 59.5t24.5 59.5t59.5 24.5zM777 0h-92v946h92v-946zM250 0h-92v860h-105v86h105v424q0 53 5 118.5t32 113.5q33 57 89 85.5t122 28.5q45 0 81 -14v-84l-36 8q-18 4 -39 4 q-59 0 -92 -26.5t-48.5 -67.5t-18.5 -90t-3 -94v-406h237v-86h-237v-860z" />
<glyph unicode="&#xfb02;" horiz-adv-x="899" d="M742 0h-92v1690h92v-1690zM250 0h-92v860h-105v86h105v424q0 53 5 118.5t32 113.5q33 57 89 85.5t122 28.5q45 0 81 -14v-84l-36 8q-18 4 -39 4q-59 0 -92 -26.5t-48.5 -67.5t-18.5 -90t-3 -94v-406h237v-86h-237v-860z" />
<glyph unicode="&#xfb03;" horiz-adv-x="1462" d="M1223 1346q35 0 59.5 -25t24.5 -59q0 -35 -25 -59.5t-59 -24.5q-35 0 -59.5 24.5t-24.5 59.5t24.5 59.5t59.5 24.5zM1268 0h-92v946h92v-946zM742 0h-92v860h-105v86h105v424q0 53 5 118.5t32 113.5q33 57 89 85.5t122 28.5q45 0 81 -14v-84l-36 8q-18 4 -39 4 q-59 0 -92 -26.5t-48.5 -67.5t-18.5 -90t-3 -94v-406h237v-86h-237v-860zM250 0h-92v860h-105v86h105v424q0 53 5 118.5t32 113.5q33 57 89 85.5t122 28.5q45 0 81 -14v-84l-36 8q-18 4 -39 4q-59 0 -92 -26.5t-48.5 -67.5t-18.5 -90t-3 -94v-406h237v-86h-237v-860z" />
<glyph unicode="&#xfb04;" horiz-adv-x="1390" d="M1233 0h-92v1690h92v-1690zM742 0h-92v860h-105v86h105v424q0 53 5 118.5t32 113.5q33 57 89 85.5t122 28.5q45 0 81 -14v-84l-36 8q-18 4 -39 4q-59 0 -92 -26.5t-48.5 -67.5t-18.5 -90t-3 -94v-406h237v-86h-237v-860zM250 0h-92v860h-105v86h105v424q0 53 5 118.5 t32 113.5q33 57 89 85.5t122 28.5q45 0 81 -14v-84l-36 8q-18 4 -39 4q-59 0 -92 -26.5t-48.5 -67.5t-18.5 -90t-3 -94v-406h237v-86h-237v-860z" />
</font>
</defs>
</svg>
